<?xml version="1.0" encoding="UTF-8" standalone="no"?>
<!-- Created with Inkscape (http://www.inkscape.org/) -->

<svg
   xmlns:dc="http://purl.org/dc/elements/1.1/"
   xmlns:cc="http://creativecommons.org/ns#"
   xmlns:rdf="http://www.w3.org/1999/02/22-rdf-syntax-ns#"
   xmlns:svg="http://www.w3.org/2000/svg"
   xmlns="http://www.w3.org/2000/svg"
   xmlns:sodipodi="http://sodipodi.sourceforge.net/DTD/sodipodi-0.dtd"
   xmlns:inkscape="http://www.inkscape.org/namespaces/inkscape"
   viewBox="0 0 64 64"
   inkscape:version="0.92.3 (2405546, 2018-03-11)"
   version="1.1"
   id="svg4187"
   height="64"
   width="64"
   sodipodi:docname="trojan-rlogo.svg">
  <sodipodi:namedview
     inkscape:window-maximized="1"
     inkscape:window-y="27"
     inkscape:window-x="67"
     inkscape:window-height="1025"
     inkscape:window-width="1853"
     inkscape:grid-bbox="true"
     inkscape:document-units="px"
     showgrid="true"
     inkscape:current-layer="layer1"
     inkscape:cy="61.251199"
     inkscape:cx="34.580543"
     inkscape:zoom="5.5"
     inkscape:pageshadow="2"
     inkscape:pageopacity="0.0"
     borderopacity="1.0"
     bordercolor="#666666"
     pagecolor="#ffffff"
     id="base" />
  <defs
     id="defs4189">
    <linearGradient
       gradientTransform="matrix(0.07010373,0,0,0.04695045,0.89953827,-38.122956)"
       id="gradientFill-1"
       x1="0.74144253"
       x2="590.86259"
       y1="3.6658269"
       y2="593.78698"
       gradientUnits="userSpaceOnUse"
       spreadMethod="pad">
      <stop
         offset="0"
         stop-color="rgb(203,206,208)"
         stop-opacity="1"
         id="stop4800" />
      <stop
         offset="1"
         stop-color="rgb(132,131,139)"
         stop-opacity="1"
         id="stop4802" />
    </linearGradient>
    <linearGradient
       gradientTransform="matrix(0.05679403,0,0,0.05795331,0.89953827,-38.122956)"
       id="gradientFill-2"
       x1="301.02603"
       x2="703.06751"
       y1="151.40061"
       y2="553.44209"
       gradientUnits="userSpaceOnUse"
       spreadMethod="pad">
      <stop
         offset="0"
         stop-color="rgb(39,109,195)"
         stop-opacity="1"
         id="stop4805" />
      <stop
         offset="1"
         stop-color="rgb(22,92,170)"
         stop-opacity="1"
         id="stop4807" />
    </linearGradient>
    <linearGradient
       gradientTransform="matrix(0.07010373,0,0,0.04695045,0.89953827,-38.122956)"
       id="gradientFill-1-3"
       x1="0.7414425"
       x2="590.86261"
       y1="3.6658268"
       y2="593.78699"
       gradientUnits="userSpaceOnUse"
       spreadMethod="pad">
      <stop
         offset="0"
         stop-color="rgb(203,206,208)"
         stop-opacity="1"
         id="stop4800-5" />
      <stop
         offset="1"
         stop-color="rgb(132,131,139)"
         stop-opacity="1"
         id="stop4802-6" />
    </linearGradient>
  </defs>
  <metadata
     id="metadata4192">
    <rdf:RDF>
      <cc:Work
         rdf:about="">
        <dc:format>image/svg+xml</dc:format>
        <dc:type
           rdf:resource="http://purl.org/dc/dcmitype/StillImage" />
      </cc:Work>
    </rdf:RDF>
  </metadata>
  <g
     inkscape:groupmode="layer"
     inkscape:label="Layer 1"
     id="layer1">
    <g
       id="g3755">
      <path
         style="fill:#fef1d0"
         d="M 4.0366062,62.221416 C 3.3362528,61.947857 3.1235114,61.625788 3.1235114,60.839083 c 0,-0.74618 0.1907204,-1.030891 1.3152806,-1.963473 1.3949304,-1.156796 3.7117203,-3.514971 4.5366025,-4.617639 1.6976455,-2.269342 2.6096635,-4.290217 3.0175275,-6.68632 0.193292,-1.135545 0.228527,-3.109106 0.07882,-4.414585 -0.228956,-1.996497 -0.180309,-5.803457 0.116288,-9.100389 0.468343,-5.206035 1.088205,-8.578318 2.167832,-11.793831 1.867012,-5.560629 4.651715,-10.012157 8.132199,-12.9998514 4.233245,-3.6338747 9.402833,-5.8022638 15.624876,-6.5538704 1.408482,-0.1701411 5.43673,-0.239684 6.83639,-0.1180222 5.064426,0.440212 9.283303,1.9174556 13.521806,4.7346728 1.347981,0.8959655 2.838744,1.9979142 2.892548,2.1381253 0.03239,0.084414 -0.0407,0.1574809 -0.246475,0.2463835 -1.019173,0.4403224 -2.145645,1.0208574 -2.711535,1.3974084 -1.891556,1.258668 -3.32076,2.962886 -4.146456,4.944338 -0.402802,0.966617 -0.394987,1.037525 0.15078,1.368059 0.658314,0.398696 1.000892,0.741621 1.197549,1.198763 0.235654,0.547791 0.183029,1.097303 -0.159152,1.6619 -0.361762,0.596904 -1.601245,2.35831 -2.081118,2.957436 l -0.41471,0.517771 0.64273,0.639391 0.642729,0.639391 0.704426,6.27e-4 c 1.538815,0.0014 2.775157,0.23428 3.775427,0.711127 2.530259,1.20622 2.812515,3.835275 0.695786,6.480859 -0.608506,0.760539 -1.365472,1.475678 -2.452722,2.317195 -0.442271,0.342312 -0.804129,0.637695 -0.804129,0.656407 0,0.01871 0.199329,0.333545 0.442955,0.699632 0.542865,0.815742 0.613065,1.194784 0.339185,1.831434 -0.245495,0.570668 -0.709162,0.953755 -1.528798,1.263105 -0.81568,0.307858 -0.983319,0.493812 -0.799178,0.886493 0.307523,0.655797 0.348118,1.395501 0.101621,1.851722 -0.08426,0.155947 -0.07734,0.228433 0.04464,0.467685 0.177579,0.348309 0.183739,0.756071 0.01877,1.241992 -0.108341,0.31911 -0.112967,0.472998 -0.03369,1.120677 0.05054,0.412926 0.14236,0.973609 0.204037,1.245964 0.324792,1.434215 -0.05239,2.160468 -1.43226,2.7578 -0.915442,0.396286 -3.379616,1.63373 -3.841259,1.928982 -0.338492,0.216488 -0.433599,0.332477 -0.586681,0.715491 -0.167737,0.41968 -0.183261,0.5792 -0.18955,1.947699 -0.0088,1.908282 -0.04743,2.014089 -0.990821,2.711804 -1.587877,1.174363 -6.416351,4.268246 -7.687843,4.926045 -0.692688,0.358359 -0.715592,0.364115 -1.424116,0.357885 -0.636842,-0.0056 -0.804016,-0.03962 -1.445784,-0.294194 -1.853367,-0.735193 -2.199822,-0.856448 -2.74525,-0.960806 -0.805229,-0.154066 -1.750415,-0.139548 -2.62005,0.04024 -0.403872,0.0835 -2.199398,0.486275 -3.990056,0.895061 -4.780418,1.091311 -4.389341,1.024717 -6.040775,1.028643 -1.360365,0.0032 -1.472157,-0.0077 -1.783158,-0.173835 -0.38301,-0.204647 -0.570515,-0.512745 -0.570098,-0.936754 6.28e-4,-0.623294 0.110556,-0.705976 2.583806,-1.94317 3.516315,-1.758966 5.654873,-2.971869 6.473132,-3.671295 0.960226,-0.820777 1.826291,-3.271104 1.753504,-4.961132 l -0.02364,-0.548801 -0.313806,-0.06528 C 29.30386,49.404338 28.192736,48.999235 27.648257,48.680509 26.999708,48.300864 26.180979,47.578523 25.837589,47.083011 l -0.219022,-0.316048 0.287258,-0.961594 c 0.320033,-1.071302 0.567853,-2.201504 0.645205,-2.942497 l 0.05119,-0.490322 h -0.439557 c -0.358834,0 -0.454934,0.02873 -0.523283,0.156442 -0.121644,0.227294 -0.337841,1.321453 -0.744161,3.766139 -0.197217,1.186581 -0.446573,2.501926 -0.554127,2.92299 -1.081426,4.233707 -3.592334,7.675717 -7.260229,9.952488 -3.081678,1.91289 -7.7263178,3.214474 -11.4312997,3.203435 -1.0174466,-0.003 -1.2979051,-0.02957 -1.6129521,-0.152628 z"
         id="path5063"
         inkscape:connector-curvature="0" />
      <path
         style="fill:#fee5a0"
         d="m 4.6380404,62.303034 c -0.9994229,-0.157023 -1.4765232,-0.628797 -1.471556,-1.455127 0.0046,-0.764925 0.159207,-0.969047 1.7232335,-2.275097 1.2130733,-1.012985 2.8810734,-2.684572 3.7197689,-3.727771 1.7934692,-2.230777 2.8584382,-4.369846 3.3820342,-6.793063 0.212797,-0.984833 0.295181,-3.489616 0.157128,-4.777233 -0.372637,-3.475537 -0.02929,-9.741602 0.823202,-15.023486 0.88384,-5.476097 3.006846,-10.861724 5.853279,-14.848556 5.188379,-7.2670575 14.428239,-11.2694857 24.938979,-10.8028121 5.571111,0.2473556 10.186369,1.7792698 14.928082,4.9549868 1.256157,0.8412994 2.559391,1.8250093 2.561724,1.9336454 0.0012,0.057683 -0.112484,0.1459416 -0.252717,0.1961291 -0.503159,0.1800744 -1.972152,0.9271028 -2.52034,1.2816708 -2.001275,1.294424 -3.520025,3.118558 -4.362749,5.239993 -0.34745,0.874654 -0.343589,0.887744 0.408368,1.384206 0.464194,0.306474 0.709639,0.530624 0.876415,0.800379 0.30693,0.496448 0.361057,1.073507 0.14563,1.552593 -0.179993,0.400291 -1.804161,2.737717 -2.32922,3.352106 -0.196603,0.230052 -0.35746,0.447773 -0.35746,0.483822 0,0.03605 0.304145,0.3456 0.675877,0.687889 l 0.675877,0.622345 1.226575,0.04994 c 1.487114,0.06056 2.378926,0.245659 3.276353,0.680039 2.77301,1.342214 2.710657,4.34705 -0.150262,7.241233 -0.539043,0.545311 -2.00315,1.761767 -2.332728,1.938152 -0.08535,0.04568 -0.155175,0.117455 -0.155175,0.159509 0,0.04205 0.19933,0.375986 0.442956,0.742073 0.566184,0.850782 0.626376,1.227233 0.302173,1.889877 -0.257483,0.526279 -0.638341,0.821396 -1.505259,1.16639 -0.375719,0.149518 -0.65715,0.317023 -0.754924,0.449323 l -0.155888,0.210935 0.184754,0.416678 c 0.231962,0.523146 0.260861,1.337953 0.05841,1.64693 -0.126478,0.19303 -0.125471,0.218887 0.01961,0.50346 0.184734,0.362347 0.194611,0.76619 0.03055,1.249407 -0.104012,0.306359 -0.10911,0.474593 -0.03396,1.120677 0.04863,0.418112 0.13901,0.98304 0.200836,1.255395 0.323293,1.424184 -0.03442,2.125741 -1.368093,2.683105 -0.975126,0.407523 -3.550468,1.712838 -3.944927,1.999492 -0.281219,0.204362 -0.407454,0.370343 -0.548448,0.721128 -0.168446,0.419088 -0.183356,0.572173 -0.185742,1.907021 -0.003,1.703205 -0.04993,1.894968 -0.579573,2.370603 -0.920963,0.827044 -7.067126,4.806571 -8.296226,5.371653 -0.89467,0.411326 -1.686806,0.324471 -3.312006,-0.36315 -1.226972,-0.519131 -1.937454,-0.707778 -2.877031,-0.763903 -0.994069,-0.05938 -1.057255,-0.04815 -5.645227,1.003267 -4.25569,0.975269 -4.92738,1.093429 -6.266454,1.102354 -1.129529,0.0075 -1.555518,-0.09149 -1.907389,-0.443362 -0.211443,-0.211443 -0.259706,-0.320876 -0.259706,-0.588866 0,-0.64211 0.06861,-0.694318 2.549677,-1.940038 3.712175,-1.863849 5.716945,-3.005396 6.475034,-3.686983 0.935574,-0.841162 1.653826,-2.677227 1.776751,-4.541906 0.06913,-1.048679 0.05361,-1.08157 -0.564133,-1.195394 -1.536712,-0.28315 -3.136874,-1.217078 -3.925116,-2.290879 l -0.289677,-0.39462 0.283867,-0.957711 c 0.349726,-1.179902 0.596486,-2.3742 0.61932,-2.997453 l 0.01725,-0.47071 -0.446807,-0.0234 c -0.393906,-0.02063 -0.460473,-0.0021 -0.562236,0.156903 -0.153909,0.24041 -0.373419,1.292128 -0.760834,3.645326 -0.397967,2.417286 -0.486729,2.848472 -0.788635,3.830978 -0.599394,1.95064 -1.395667,3.543618 -2.568594,5.138582 -0.538083,0.731693 -1.897869,2.136501 -2.67883,2.767525 -2.781984,2.247869 -6.682689,3.783999 -10.9832281,4.325285 -1.1799509,0.148515 -2.6807412,0.208926 -3.1925685,0.128511 z"
         id="path5061"
         inkscape:connector-curvature="0" />
      <path
         style="fill:#fed25c"
         d="M 4.457189,62.196516 C 3.9222873,62.071642 3.7439638,61.975152 3.4897566,61.673045 3.0908321,61.19895 3.147649,60.348639 3.6137215,59.817812 3.7502606,59.662303 4.1988912,59.253629 4.6106785,58.909648 8.9123466,55.31631 11.244968,51.911393 12.076636,48.011622 c 0.148362,-0.695683 0.174592,-1.07142 0.180073,-2.579459 0.0035,-0.970839 -0.04297,-2.399813 -0.103338,-3.175499 -0.288651,-3.709092 0.241594,-10.898423 1.13711,-15.417536 0.850629,-4.292593 2.56805,-8.677673 4.762477,-12.160002 1.335953,-2.120019 3.451386,-4.49634 5.311073,-5.9660674 3.96597,-3.1343404 8.891502,-5.1254243 14.343931,-5.7983524 7.699088,-0.950206 14.178639,0.3983129 20.17882,4.1995992 1.113137,0.7052046 3.228789,2.2321247 3.269908,2.3599762 0.01603,0.049852 -0.105065,0.1337154 -0.269106,0.1863635 -0.541063,0.1736513 -2.012125,0.9493849 -2.728157,1.4386369 -0.849553,0.580483 -2.086267,1.748707 -2.659024,2.511763 -0.566711,0.755004 -1.088758,1.672812 -1.421243,2.498688 -0.39137,0.972142 -0.38568,1.000533 0.292876,1.461206 0.312826,0.212378 0.663986,0.487054 0.780354,0.610391 0.432454,0.458347 0.572964,1.16358 0.341978,1.716409 -0.146907,0.351596 -1.944605,2.93468 -2.377558,3.416274 -0.183381,0.203983 -0.333419,0.403432 -0.333419,0.443218 0,0.03979 0.313182,0.378807 0.695962,0.753377 l 0.695962,0.681036 h 0.81629 c 1.567881,0 2.697346,0.214462 3.714883,0.705382 1.100536,0.530963 1.754955,1.362211 1.944753,2.470245 0.159514,0.931238 -0.195309,2.124194 -0.972999,3.271342 -0.497241,0.733465 -1.705065,1.940218 -2.753997,2.751555 -0.508386,0.39323 -0.924338,0.75297 -0.924338,0.79942 0,0.04645 0.21182,0.395757 0.47071,0.776238 0.411219,0.604352 0.470492,0.738119 0.468987,1.058414 -0.0035,0.750579 -0.586052,1.477695 -1.418926,1.771124 -0.708301,0.249542 -0.983293,0.417337 -1.08454,0.661769 -0.08307,0.200553 -0.07234,0.27589 0.08161,0.572909 0.233041,0.44961 0.257761,1.336045 0.04597,1.648609 -0.136803,0.201898 -0.136191,0.217525 0.01991,0.508774 0.192018,0.358264 0.204816,0.756787 0.0399,1.242534 -0.109593,0.3228 -0.109131,0.450038 0.0048,1.334237 0.0693,0.537575 0.159117,1.092893 0.199598,1.234041 0.142628,0.497314 0.09006,1.157216 -0.120851,1.517111 -0.170288,0.290578 -0.813137,0.819525 -0.995997,0.819525 -0.120242,0 -2.447927,1.111212 -3.320517,1.585179 -1.040969,0.565427 -1.242245,0.745438 -1.46742,1.312379 -0.157046,0.39541 -0.174038,0.581077 -0.179966,1.966443 -0.0074,1.731374 -0.02931,1.815015 -0.606041,2.314588 -0.787418,0.682071 -6.610848,4.4433 -7.98744,5.158917 -1.05077,0.546239 -1.751228,0.496132 -3.517137,-0.2516 -1.483126,-0.627995 -1.992514,-0.745368 -3.226773,-0.743518 -1.019785,0.0015 -1.137722,0.01987 -3.177291,0.494187 -5.390493,1.253591 -6.529185,1.489157 -7.627813,1.577998 -1.722232,0.139267 -2.49327,-0.03971 -2.792879,-0.648289 -0.118697,-0.241105 -0.128482,-0.33713 -0.05656,-0.555053 0.04783,-0.144932 0.165374,-0.334755 0.261206,-0.421831 0.09583,-0.08708 1.374549,-0.76296 2.841594,-1.501965 2.873757,-1.447617 4.763584,-2.511243 5.627965,-3.167511 1.12971,-0.857715 1.944073,-2.759999 2.070141,-4.835675 0.06526,-1.074504 0.03782,-1.12834 -0.638684,-1.25299 -1.53512,-0.282857 -3.050966,-1.176954 -3.913513,-2.30832 l -0.225985,-0.296416 0.285006,-0.95881 C 26.379,44.725952 26.627825,43.57507 26.706416,42.807983 l 0.05265,-0.513885 h -0.589702 c -0.569962,0 -0.592611,0.0072 -0.676533,0.215742 -0.147172,0.365674 -0.303344,1.150484 -0.675192,3.393033 -0.418899,2.526309 -0.514646,2.988995 -0.836076,4.040258 -0.77875,2.546954 -1.991186,4.656649 -3.715303,6.464798 -2.540954,2.664797 -6.052135,4.46405 -10.4855274,5.373152 C 7.74336,62.19886 5.2879574,62.390471 4.457137,62.196516 Z"
         id="path5059"
         inkscape:connector-curvature="0" />
      <path
         style="fill:#fdc52b"
         d="M 4.6311136,62.13346 C 3.7303438,61.983482 3.3291258,61.587183 3.3296022,60.847907 c 3.985e-4,-0.618965 0.2218303,-0.94158 1.2213579,-1.779458 4.4670782,-3.744632 6.8256609,-7.16254 7.5980039,-11.010545 0.249109,-1.241119 0.288874,-3.155196 0.112774,-5.428298 -0.371102,-4.790209 0.323975,-12.763513 1.536648,-17.62706 1.547598,-6.206798 4.788144,-12.018513 8.528129,-15.2946576 4.951065,-4.3370247 11.009588,-6.626173 18.384903,-6.9465395 6.766426,-0.2939178 12.379679,1.2424705 17.838167,4.8824365 1.021066,0.680893 2.493576,1.7828825 2.445963,1.8304966 -0.02244,0.022437 -0.371581,0.1897704 -0.775874,0.3718509 -2.583602,1.1635711 -4.618088,3.0240081 -5.767684,5.2742631 -0.356683,0.698184 -0.805632,1.80902 -0.805632,1.993382 0,0.03946 0.317913,0.285517 0.706472,0.546784 0.430167,0.289243 0.787597,0.597618 0.913895,0.788469 0.284562,0.430001 0.328909,0.960504 0.119808,1.43321 -0.179169,0.405043 -1.493008,2.320735 -2.213097,3.226891 -0.257673,0.324255 -0.467756,0.634219 -0.466852,0.688808 9.02e-4,0.05459 0.32746,0.402426 0.725678,0.772973 l 0.724032,0.67372 1.216,0.05223 c 1.352444,0.05809 2.055733,0.175047 2.846231,0.473333 0.987492,0.37262 1.669958,0.932763 2.04985,1.682444 0.892559,1.76138 -0.05501,4.039074 -2.583246,6.209413 -0.442082,0.379501 -1.01976,0.84231 -1.283729,1.028467 -0.304362,0.214642 -0.479944,0.393748 -0.479944,0.489576 0,0.08311 0.15383,0.367411 0.341846,0.631781 0.655463,0.921654 0.737952,1.282829 0.435626,1.907354 -0.225928,0.466703 -0.623305,0.770133 -1.391898,1.062827 -0.431928,0.164485 -0.720211,0.328022 -0.84987,0.482114 -0.212988,0.253122 -0.21097,0.297899 0.04463,0.990185 0.204742,0.554526 0.204075,0.859412 -0.0029,1.340618 -0.158604,0.368685 -0.16031,0.396859 -0.03258,0.538002 0.201719,0.222897 0.235815,0.703653 0.08636,1.217745 -0.143653,0.494147 -0.09742,1.207348 0.162653,2.509169 0.171541,0.85866 0.118866,1.377078 -0.177818,1.750077 -0.249408,0.313563 -0.467147,0.434829 -2.559105,1.425251 -1.658618,0.78526 -2.679003,1.36756 -2.871,1.638382 -0.367439,0.518293 -0.438045,0.91322 -0.444464,2.486048 -0.0077,1.885574 -0.0023,1.872349 -1.086947,2.660494 -1.903344,1.383031 -6.277911,4.170898 -7.496057,4.777162 -0.616042,0.3066 -0.704374,0.328791 -1.294452,0.325189 -0.718131,-0.0044 -0.873093,-0.04827 -2.263979,-0.641259 -1.327108,-0.565793 -2.232642,-0.754679 -3.39022,-0.707167 -0.742583,0.03048 -1.371864,0.152622 -4.510968,0.875576 -5.335144,1.228716 -5.313769,1.224833 -6.787352,1.232817 -1.079656,0.0059 -1.499854,-0.08199 -1.792599,-0.374737 -0.248884,-0.248884 -0.282403,-0.754306 -0.0676,-1.019269 0.07455,-0.09196 1.159339,-0.682242 2.410643,-1.311744 3.951082,-1.987696 6.079542,-3.239316 6.692108,-3.935227 0.894733,-1.016471 1.582582,-3.121841 1.584075,-4.848541 6.28e-4,-0.714571 -0.06127,-0.810542 -0.567038,-0.879248 -1.545867,-0.209998 -3.3469,-1.269225 -4.092216,-2.406721 -0.122911,-0.187585 -0.119462,-0.231991 0.06346,-0.816976 0.395532,-1.264887 0.751332,-2.955113 0.751873,-3.571764 3.14e-4,-0.335364 -0.07829,-0.381038 -0.655549,-0.381038 -0.796691,0 -0.797636,0.0025 -1.459449,3.892223 -0.256122,1.505317 -0.573542,3.117394 -0.705378,3.582394 -1.344937,4.743733 -4.513467,8.384482 -9.104076,10.460893 -2.370852,1.072376 -5.4518191,1.842736 -8.2683709,2.067408 -1.1466987,0.09147 -1.4076226,0.0906 -1.9917155,-0.0067 z"
         id="path5057"
         inkscape:connector-curvature="0" />
      <path
         style="fill:#f4b22b"
         d="m 4.5669947,61.088915 c -0.2893479,-0.12596 -0.3869358,-0.329479 -0.2490404,-0.519372 0.055005,-0.07575 0.5412993,-0.500997 1.0806542,-0.945003 1.2188914,-1.00341 3.0476211,-2.822701 3.9477958,-3.927419 1.9699277,-2.417546 3.3230157,-5.055427 3.8232367,-7.453499 0.08404,-0.40287 0.17259,-1.173781 0.196788,-1.713136 0.0242,-0.539355 0.05944,-1.05736 0.07833,-1.151123 0.02092,-0.103885 0.245383,-0.310786 0.574627,-0.529667 0.680826,-0.452612 1.465773,-1.286223 1.706728,-1.812538 0.18231,-0.398217 0.369831,-1.164697 0.273582,-1.118251 -0.02714,0.0131 -0.49063,0.24319 -1.029985,0.511319 -0.539355,0.268131 -1.128949,0.510291 -1.310208,0.538133 -0.313158,0.0481 -0.332684,0.03942 -0.392258,-0.174528 -0.03448,-0.123834 -0.06199,-1.813798 -0.06113,-3.755475 0.0016,-3.666695 0.07733,-5.037808 0.426538,-7.725529 0.126316,-0.972199 0.172288,-1.155627 0.319507,-1.274839 0.09458,-0.07659 0.21731,-0.139247 0.272734,-0.139247 0.369079,0 2.296845,-1.025896 2.680758,-1.426616 l 0.211605,-0.220868 -0.505,-6.27e-4 c -0.496851,-6.28e-4 -1.716516,-0.115869 -2.126318,-0.200896 -0.115053,-0.02387 -0.22952,-0.09639 -0.254371,-0.161149 -0.06226,-0.162251 0.442749,-2.3847 0.900449,-3.962693 0.918423,-3.166414 2.186835,-6.099173 3.642931,-8.423008 0.767357,-1.22465 1.054694,-1.608407 1.203411,-1.607227 0.07146,5.49e-4 0.465311,0.07066 0.875221,0.155772 0.40991,0.08511 1.186581,0.175496 1.725936,0.200864 l 0.980645,0.04612 -0.235355,-0.20926 C 23.195361,13.97406 22.776403,13.609778 22.393789,13.279637 21.665826,12.651493 21.32429,12.291572 21.32429,12.15255 c 0,-0.12133 1.264576,-1.397304 2.078968,-2.097705 2.073115,-1.7829392 4.445398,-3.1995983 7.139098,-4.2632643 1.133641,-0.4476432 2.337678,-0.8404585 2.576127,-0.8404585 0.0864,0 0.190964,0.1281549 0.286591,0.3512447 0.08281,0.1931846 0.27948,0.5527786 0.437049,0.7990978 0.293659,0.4590627 1.103968,1.3601095 1.223143,1.3601095 0.03658,0 0.06721,-0.414813 0.06806,-0.9218066 0.0018,-1.0451301 0.114155,-1.9738666 0.255815,-2.1138786 0.118831,-0.1174482 1.47802,-0.3648467 3.012872,-0.5484005 1.444837,-0.172789 6.05447,-0.1995688 7.242277,-0.042074 1.39191,0.1845572 2.706203,0.4239074 2.813559,0.5123864 0.07795,0.064246 0.09332,0.1953016 0.05664,0.4830349 -0.118477,0.9293158 -0.194619,2.1424444 -0.151473,2.4133002 l 0.04659,0.2924973 0.238304,-0.3317231 c 0.525477,-0.7314651 1.723051,-2.1802866 1.864987,-2.2562487 0.114565,-0.061314 0.298155,-0.030451 0.759687,0.1277078 1.591451,0.545362 3.377546,1.3520041 4.766549,2.1526846 1.017977,0.5868048 2.851717,1.8146348 2.900678,1.942227 0.0628,0.1636634 0.01075,0.2109772 -0.606342,0.5511182 -2.275003,1.2539829 -4.284758,3.5778179 -5.253636,6.0746629 -0.20862,0.53762 -0.368778,0.843355 -0.441791,0.843355 -0.06299,0 -0.470873,-0.173247 -0.906399,-0.384993 -2.348383,-1.141749 -5.295973,-1.836111 -8.24477,-1.942215 -8.082422,-0.290821 -15.659513,4.117553 -19.419084,11.298082 -0.476242,0.909591 -1.210974,2.629611 -1.149525,2.69106 0.01941,0.01941 0.210822,-0.293052 0.425363,-0.694355 1.156103,-2.162502 1.745838,-2.979344 3.539782,-4.902956 1.740552,-1.866359 3.224868,-3.16816 4.78412,-4.195853 2.488909,-1.640423 5.17552,-2.666949 8.210569,-3.137172 1.392894,-0.215801 4.136984,-0.237822 5.494286,-0.04409 2.787348,0.397849 5.420232,1.316337 7.738782,2.699693 1.151274,0.686903 1.517244,1.02913 1.438033,1.344734 -0.0665,0.264953 -2.181875,3.254467 -2.454721,3.469089 -0.279708,0.220018 -0.494026,0.169451 -1.189997,-0.28077 -0.830626,-0.537329 -2.347628,-1.245531 -3.424424,-1.598668 -1.798295,-0.589756 -3.722025,-0.825456 -5.737274,-0.702945 -4.217567,0.256393 -8.334521,2.439156 -10.945972,5.803432 -0.547959,0.705925 -1.235102,1.769334 -1.235102,1.911422 0,0.114854 3.880874,4.196607 4.185542,4.40219 0.382642,0.258199 0.810354,0.367563 1.299216,0.332202 0.496341,-0.0359 0.596744,-0.0805 2.16224,-0.960365 6.16906,-3.467247 11.670942,-5.251931 16.790684,-5.446512 2.694584,-0.10241 4.022622,0.168915 4.932676,1.007774 0.548933,0.505988 0.702891,0.895099 0.661959,1.673024 -0.02835,0.538882 -0.07982,0.73639 -0.320593,1.230321 -0.387154,0.794222 -0.919408,1.477115 -1.839632,2.36028 -1.061733,1.018977 -2.029636,1.741782 -2.206008,1.64739 -0.07401,-0.03961 -0.626513,-0.781025 -1.227777,-1.647587 -0.601263,-0.866562 -1.134567,-1.575567 -1.185118,-1.575567 -0.169392,0 -0.325328,0.352626 -0.382487,0.86494 -0.08167,0.732049 -0.270065,1.103949 -0.752321,1.485151 -0.591215,0.467328 -0.844745,0.581864 -1.29313,0.584189 -0.331258,0.0017 -0.497809,-0.05746 -1.019871,-0.362381 -1.209785,-0.706597 -1.30006,-0.729087 -2.899054,-0.722232 -1.315779,0.0056 -1.474361,0.0225 -2.324218,0.247125 -1.156124,0.305569 -2.122806,0.687536 -3.363525,1.329031 -0.8989,0.464762 -2.679922,1.581911 -2.779918,1.743708 -0.04774,0.07725 3.875488,7.173987 4.268391,7.721096 0.431714,0.601151 1.003032,0.987836 1.884947,1.275789 0.384365,0.125499 0.889823,0.146371 4.628646,0.191137 4.369745,0.05232 4.521419,0.06446 5.081644,0.406549 0.329392,0.201139 0.488421,0.51333 0.488421,0.958823 0,0.590083 -0.224503,0.767106 -2.047856,1.614761 -0.874565,0.406574 -1.998361,0.972396 -2.497325,1.257382 -0.808258,0.46164 -0.934555,0.563508 -1.15795,0.933973 -0.394028,0.653432 -0.506832,1.312414 -0.479099,2.798804 0.02224,1.192156 0.01314,1.288742 -0.14092,1.496007 -0.293004,0.394186 -4.018178,2.89124 -6.959688,4.66521 -1.943603,1.172151 -2.259782,1.219369 -3.807436,0.568594 -1.997368,-0.839875 -2.747453,-1.010713 -4.164357,-0.948463 -0.804077,0.03533 -1.298179,0.115829 -2.673115,0.435529 -6.710818,1.560397 -7.218929,1.65797 -8.637585,1.65869 -1.054853,5.5e-4 -1.382914,-0.08345 -1.45549,-0.372615 -0.06619,-0.263734 -0.0285,-0.28922 1.581074,-1.068984 2.945681,-1.427049 5.799266,-3.018281 6.917325,-3.857276 0.644651,-0.483749 0.830394,-0.707063 1.269218,-1.525953 0.702312,-1.310584 0.976671,-2.424175 0.985749,-4.001033 0.0036,-0.625651 -0.02191,-1.30401 -0.05669,-1.507463 -0.05981,-0.34987 -0.07894,-0.372548 -0.353032,-0.4185 -1.239395,-0.207783 -2.502553,-0.767042 -3.240231,-1.434603 -0.363556,-0.328999 -0.466452,-0.469062 -0.436589,-0.594295 0.02149,-0.09012 0.164005,-0.645646 0.316701,-1.234509 0.284905,-1.098714 0.494883,-2.430113 0.536393,-3.401083 l 0.02348,-0.549161 -1.305835,-0.02147 -1.305836,-0.02147 -0.247023,0.207857 c -0.514365,0.432809 -0.691799,1.007196 -1.063847,3.443863 -0.466516,3.055377 -0.810822,4.547212 -1.380428,5.981204 -2.294807,5.77723 -7.424517,9.284879 -15.0004069,10.257142 -1.159314,0.148783 -2.6706112,0.152199 -3.0046284,0.0068 z m 36.1501463,-9.89201 c 0.418325,-0.142913 1.102268,-0.338796 1.519872,-0.435296 l 0.759282,-0.175454 0.153424,-0.346841 c 0.08438,-0.190763 0.136812,-0.390133 0.116507,-0.443046 -0.02113,-0.05507 -0.465018,-0.17047 -1.03819,-0.269904 -1.174969,-0.203832 -1.822781,-0.466389 -2.179779,-0.883462 -0.269628,-0.314999 -0.370055,-0.537879 -1.517425,-3.367642 -0.411136,-1.013988 -0.772031,-1.869918 -0.801987,-1.902067 -0.08233,-0.08835 -0.63578,0.905176 -0.63578,1.14131 0,0.148237 1.724514,5.619943 2.23692,7.097519 0.02707,0.07806 0.09923,0.07201 0.330597,-0.02771 0.162783,-0.07016 0.638234,-0.244496 1.056559,-0.387409 z m 12.094699,-7.417178 -0.607651,-0.563422 -0.462242,0.04831 c -0.435955,0.04557 -0.475255,0.0353 -0.691045,-0.180488 -0.399952,-0.399953 -0.235388,-0.856292 0.423886,-1.175441 0.445701,-0.215761 1.08588,-0.214595 1.678305,0.0031 0.868656,0.319135 1.154514,0.670703 0.963595,1.185097 -0.05233,0.140994 -0.117782,0.468171 -0.145447,0.727062 -0.04914,0.459831 -0.0561,0.47127 -0.301026,0.494976 -0.216831,0.02099 -0.332866,-0.0519 -0.858375,-0.539154 z m -0.185353,-2.477426 c -0.664349,-0.356498 -0.669034,-0.357653 -1.255226,-0.30948 -0.323613,0.02659 -1.015652,0.07005 -1.537864,0.09657 -0.93339,0.0474 -0.951666,0.04509 -1.07871,-0.136285 -0.184902,-0.263985 -0.159706,-0.572049 0.06902,-0.843872 0.257423,-0.305928 0.552726,-0.364929 1.065033,-0.212791 0.573786,0.170397 0.759466,0.156773 1.654919,-0.121423 0.929001,-0.288619 1.631494,-0.295534 2.003793,-0.01973 0.487127,0.360875 0.731779,1.020035 0.56072,1.510736 -0.17868,0.512562 -0.575964,0.522286 -1.481682,0.03627 z m 0.509293,-2.41651 c -0.245302,-0.299359 -0.348719,-0.361676 -0.73093,-0.440438 -0.515893,-0.106311 -0.778848,-0.227953 -0.984855,-0.455588 -0.118181,-0.130589 -0.139912,-0.248234 -0.110768,-0.599673 0.06243,-0.7528 0.497055,-1.109696 0.895519,-0.735359 0.18578,0.174532 0.204603,0.176376 0.757226,0.07418 0.311689,-0.05764 1.154607,-0.121618 1.873148,-0.14217 l 1.30644,-0.03737 0.134098,0.204661 c 0.178872,0.272993 0.100268,0.6782 -0.197305,1.017115 -0.230648,0.262695 -0.462867,0.387117 -1.272938,0.682038 -0.307201,0.111842 -0.532779,0.261181 -0.71359,0.472419 -0.362466,0.42346 -0.583985,0.414235 -0.956045,-0.03981 z"
         id="path5055"
         inkscape:connector-curvature="0" />
      <path
         style="fill:#e5942d"
         d="m 5.084802,61.125001 c -0.4828122,-0.05212 -0.7845163,-0.188139 -0.7845163,-0.35368 0,-0.06066 0.2029936,-0.285138 0.4510969,-0.498839 2.4986248,-2.15216 3.6173958,-3.2532 4.804272,-4.728133 1.8908144,-2.349718 3.1785124,-4.909197 3.6863614,-7.327153 0.09223,-0.439148 0.185851,-1.260174 0.212653,-1.864988 l 0.04788,-1.080471 0.533872,-0.354917 c 0.674906,-0.448676 1.392778,-1.170108 1.668588,-1.676863 0.19352,-0.355558 0.479314,-1.404878 0.40333,-1.480861 -0.0172,-0.0172 -0.133463,0.04149 -0.258359,0.130422 -0.376289,0.267941 -1.600393,0.859428 -1.99775,0.965313 -0.298718,0.0796 -0.391636,0.07972 -0.47071,6.28e-4 -0.163125,-0.163161 -0.130828,-7.184322 0.04138,-8.994915 0.185761,-1.953137 0.366556,-3.421124 0.445224,-3.615046 0.04292,-0.105792 0.241353,-0.226657 0.564278,-0.343691 1.073594,-0.389091 2.812406,-1.409469 2.812406,-1.650387 0,-0.046 -0.261668,-0.07861 -0.630705,-0.07861 -0.890157,0 -2.134996,-0.148534 -2.258898,-0.26953 -0.08705,-0.08501 -0.0767,-0.232035 0.06174,-0.877327 0.672916,-3.136674 1.697483,-6.206701 2.915719,-8.7367 0.654678,-1.359616 1.05744,-2.073295 1.898362,-3.363819 l 0.631866,-0.969696 0.318831,0.04724 c 0.175358,0.02598 0.607119,0.09918 0.959469,0.162666 0.842029,0.151707 2.243627,0.239749 2.40238,0.150907 0.101955,-0.05706 0.01931,-0.154748 -0.438833,-0.518755 -0.728303,-0.578651 -1.701921,-1.52133 -1.702235,-1.648142 -3.92e-4,-0.15225 1.746805,-1.834286 2.6676,-2.5681351 1.618684,-1.2900494 3.527223,-2.4467207 5.422347,-3.2862176 1.299417,-0.5756122 3.440029,-1.3136337 3.615197,-1.2464158 0.0715,0.027439 0.246084,0.2831217 0.387954,0.5681841 0.399375,0.8024686 1.429335,2.011573 1.615515,1.8965074 0.03355,-0.020734 0.07071,-0.4715841 0.08259,-1.0018881 0.02369,-1.0581666 0.125013,-1.9357818 0.236331,-2.0470998 0.0892,-0.089201 1.938519,-0.4052376 3.192843,-0.5456359 1.269038,-0.1420454 5.976764,-0.1430948 7.099872,-0.00158 1.242914,0.1566077 2.614808,0.4006667 2.693272,0.4791314 0.04068,0.040675 0.03096,0.4077653 -0.02332,0.8809529 -0.05118,0.4461715 -0.08153,1.1793361 -0.06744,1.6292548 l 0.02562,0.8180339 0.345699,-0.4650016 c 0.784658,-1.0554462 1.763681,-2.2292421 1.89377,-2.270531 0.344699,-0.1094032 3.545406,1.2356933 5.231353,2.1984754 1.045846,0.5972438 2.839334,1.7640356 2.989334,1.9447751 0.125895,0.1516941 0.09903,0.1755189 -0.78172,0.6933513 -1.400823,0.8236046 -2.892427,2.2618366 -3.853652,3.7157666 -0.575526,0.870528 -0.789503,1.282339 -1.161762,2.235871 -0.16003,0.40991 -0.342238,0.755602 -0.404907,0.768204 -0.06267,0.0126 -0.46388,-0.150632 -0.891578,-0.362744 -1.713977,-0.850029 -3.89423,-1.475666 -6.192289,-1.776916 -5.766992,-0.755986 -11.526264,0.873195 -16.120316,4.56011 -2.235793,1.794316 -4.318472,4.412912 -5.60659,7.049283 -0.588492,1.204459 -1.168425,2.661281 -1.11874,2.810336 0.01528,0.04584 0.198407,-0.232358 0.406951,-0.618208 0.89795,-1.661396 1.676476,-2.933675 2.178441,-3.56004 1.296543,-1.617861 3.720419,-4.05631 5.120583,-5.15137 2.733924,-2.138183 6.09491,-3.560106 9.64955,-4.082411 1.161792,-0.170708 4.113098,-0.195408 5.177808,-0.04333 2.892946,0.413207 5.469142,1.297423 7.810354,2.680711 1.038012,0.613301 1.486163,0.98698 1.486163,1.239197 0,0.171692 -2.085328,3.16962 -2.399619,3.449762 -0.284949,0.253988 -0.454025,0.223044 -1.122867,-0.2055 -1.811473,-1.160657 -3.945697,-1.938522 -6.174612,-2.250473 -1.381865,-0.193401 -3.718987,-0.120841 -5.033672,0.15628 -2.322109,0.489473 -4.401669,1.437303 -6.31155,2.876704 -0.833563,0.628224 -2.320283,2.130041 -2.923866,2.953558 -0.539992,0.736755 -1.059882,1.5747 -1.059882,1.708291 0,0.0503 0.897581,1.041213 1.994625,2.202037 1.672234,1.769453 2.072766,2.151799 2.478081,2.365556 0.515183,0.2717 0.960395,0.324842 1.489617,0.177803 0.15102,-0.04196 0.804129,-0.370782 1.451355,-0.730717 1.910171,-1.062284 2.903741,-1.576571 4.275614,-2.213121 4.972411,-2.307204 9.372353,-3.407306 13.729034,-3.432622 1.325412,-0.0077 1.621449,0.01383 2.215703,0.161152 2.513239,0.623055 3.125124,2.218738 1.685026,4.394231 -0.732246,1.106172 -3.259236,3.413742 -3.556294,3.2475 -0.06156,-0.03445 -0.600756,-0.76694 -1.198212,-1.627755 -0.597456,-0.860814 -1.143071,-1.576349 -1.212477,-1.590078 -0.202887,-0.04013 -0.419798,0.414566 -0.4776,1.001168 -0.03836,0.389348 -0.112975,0.62999 -0.274099,0.884056 -0.284199,0.448135 -1.061403,0.975361 -1.544643,1.047828 -0.311038,0.04664 -0.419476,0.02015 -0.84111,-0.205499 -1.557073,-0.833309 -1.903432,-0.93743 -3.118372,-0.93743 -1.811121,0 -3.756489,0.548703 -5.877666,1.657833 -0.891266,0.466029 -2.552652,1.522076 -2.729186,1.734785 -0.0725,0.08736 0.325792,0.859616 1.955346,3.791316 1.125514,2.024889 2.168033,3.847908 2.31671,4.051155 0.458954,0.627407 1.061643,1.023667 1.951614,1.28316 0.406594,0.118552 1.012753,0.142964 4.664485,0.187855 4.679006,0.05752 4.700702,0.06004 5.17545,0.600747 0.198444,0.226016 0.237712,0.337092 0.237712,0.672415 0,0.364506 -0.02786,0.427774 -0.301106,0.683722 -0.165609,0.155126 -0.474513,0.348533 -0.686452,0.429795 -0.680461,0.260902 -3.665902,1.765703 -4.105141,2.069181 -0.837142,0.578399 -1.150412,1.540767 -1.078743,3.31391 0.02354,0.582503 0.02262,1.159002 -0.0021,1.281108 -0.02468,0.122106 -0.17222,0.345697 -0.327876,0.496868 -0.562143,0.545947 -6.4398,4.3636 -7.859789,5.105088 -0.514398,0.268607 -0.619383,0.294787 -1.16304,0.290027 -0.521564,-0.0046 -0.697424,-0.04773 -1.382119,-0.339187 -1.904419,-0.810674 -2.759458,-1.028767 -4.030922,-1.028162 -0.760344,3.93e-4 -1.475804,0.139006 -5.461724,1.058386 -3.693693,0.851975 -4.295352,0.969872 -5.342566,1.046893 -1.502176,0.110485 -2.33376,-0.06351 -2.102811,-0.439976 0.04583,-0.0747 1.121976,-0.657843 2.391444,-1.295873 3.875834,-1.947978 5.996254,-3.210787 6.693496,-3.986288 0.432948,-0.481542 1.076604,-1.769596 1.333275,-2.668087 0.351053,-1.228882 0.445078,-2.937082 0.219357,-3.985169 -0.05739,-0.266499 -0.05983,-0.267775 -0.918807,-0.480692 -0.473692,-0.117416 -1.061604,-0.302962 -1.306471,-0.412323 -0.536723,-0.23971 -1.275301,-0.735131 -1.586533,-1.064213 l -0.227358,-0.240396 0.205753,-0.728874 c 0.406977,-1.441705 0.676598,-3.062858 0.679009,-4.08268 l 0.0014,-0.608 h -1.304805 c -1.515546,0 -1.665968,0.05124 -2.009274,0.684481 -0.287214,0.529777 -0.41068,1.071293 -0.761323,3.339139 -0.356802,2.307684 -0.612461,3.512826 -1.002088,4.723736 -1.074598,3.339699 -3.116636,6.044029 -6.023415,7.97698 -1.566274,1.041542 -4.023144,2.088387 -6.119227,2.607333 -1.9255153,0.476718 -4.5384298,0.791615 -5.609291,0.676008 z M 41.383157,51.050476 c 0.380372,-0.11096 0.885754,-0.241939 1.123071,-0.291063 0.237316,-0.04912 0.473678,-0.123215 0.525249,-0.164644 0.114025,-0.0916 0.371246,-0.840389 0.309797,-0.901839 -0.02415,-0.02415 -0.521739,-0.127472 -1.105755,-0.229607 -1.171912,-0.204948 -1.655435,-0.392469 -2.063062,-0.800095 -0.318303,-0.318303 -0.428162,-0.554682 -1.547246,-3.32913 -0.46556,-1.154219 -0.875611,-2.098581 -0.911224,-2.098581 -0.109943,0 -0.699373,1.057124 -0.699373,1.254302 0,0.17788 2.139635,6.882571 2.282558,7.152552 0.0621,0.117312 0.134564,0.10444 0.731663,-0.129971 0.364504,-0.143098 0.973948,-0.350964 1.354322,-0.461924 z m 12.05722,-6.844837 c -0.124026,-0.06368 -0.402019,-0.286314 -0.617761,-0.494738 -0.527352,-0.509465 -0.687036,-0.581776 -1.149312,-0.520454 -0.338694,0.04493 -0.404176,0.02852 -0.577386,-0.144689 -0.418579,-0.418579 -0.08933,-0.955071 0.732819,-1.194075 0.423425,-0.123093 0.462701,-0.121409 1.030845,0.04421 0.706025,0.20581 1.158013,0.483264 1.225536,0.752296 0.02718,0.108289 -0.0075,0.370804 -0.07699,0.583366 -0.06953,0.212562 -0.126411,0.526106 -0.126411,0.696763 0,0.366008 -0.120788,0.441908 -0.441336,0.277322 z m -0.81389,-2.980388 -0.666838,-0.360417 -0.627613,0.05275 c -2.261756,0.190088 -2.270163,0.190341 -2.451614,0.07397 -0.267035,-0.171255 -0.241544,-0.605789 0.0528,-0.900137 0.262712,-0.262712 0.518757,-0.290575 1.025906,-0.111643 0.473126,0.166929 0.710243,0.148836 1.542244,-0.117677 1.531309,-0.490522 2.418879,-0.176018 2.582501,0.915091 0.04288,0.28595 0.02319,0.394738 -0.101913,0.563026 -0.248986,0.334937 -0.574091,0.307363 -1.355477,-0.114964 z m 0.902194,-2.069176 c -0.0863,-0.03299 -0.26923,-0.200296 -0.406519,-0.371787 -0.213722,-0.266964 -0.316906,-0.325038 -0.717566,-0.403863 -0.257373,-0.05063 -0.586336,-0.171646 -0.73103,-0.268913 -0.238482,-0.160314 -0.265065,-0.216941 -0.284322,-0.605648 -0.03818,-0.770538 0.388912,-1.173438 0.817286,-0.771003 0.17742,0.166678 0.18339,0.166924 0.9499,0.03923 0.460435,-0.07671 1.219489,-0.128506 1.883109,-0.128506 1.049995,0 1.116661,0.0092 1.200144,0.165164 0.133112,0.248722 0.02019,0.660816 -0.262518,0.958024 -0.171078,0.179853 -0.472108,0.347499 -0.938715,0.522778 -0.50936,0.191339 -0.755162,0.333607 -0.951099,0.550485 -0.332319,0.367838 -0.366989,0.387327 -0.55867,0.314043 z"
         id="path5053"
         inkscape:connector-curvature="0" />
      <path
         style="fill:#d26f2f"
         d="m 4.8550728,61.037143 c -0.3935056,-0.0772 -0.5166819,-0.167067 -0.453751,-0.331062 0.02388,-0.06223 0.4610324,-0.459598 0.9714494,-0.883039 1.1868152,-0.984579 3.4190244,-3.219133 4.2236314,-4.228067 2.4629014,-3.088348 3.7895334,-6.224654 3.9369944,-9.307489 l 0.04849,-1.013726 0.360491,-0.223147 c 0.916605,-0.567387 1.774378,-1.511048 2.006449,-2.207354 0.171629,-0.514956 0.267179,-1.09458 0.188459,-1.143232 -0.03736,-0.02309 -0.229806,0.06938 -0.427645,0.205499 -0.501308,0.344909 -1.644621,0.869285 -1.998949,0.916811 l -0.295523,0.03964 -0.04351,-0.499681 c -0.147593,-1.695226 -0.09204,-5.97471 0.108839,-8.384068 0.117418,-1.408325 0.393614,-3.624395 0.469137,-3.764142 0.03543,-0.06557 0.217665,-0.1646 0.404956,-0.220072 0.936381,-0.27734 3.047112,-1.541354 3.047112,-1.824768 0,-0.04269 -0.346591,-0.07489 -0.806187,-0.07489 -0.903444,0 -2.097949,-0.128592 -2.208052,-0.237704 -0.124885,-0.123759 0.584309,-3.078935 1.213786,-5.057781 0.703074,-2.210206 1.848089,-4.811959 2.940641,-6.681847 0.474237,-0.811651 1.266022,-1.991626 1.393117,-2.076124 0.04123,-0.02741 0.185346,-0.01985 0.320251,0.01681 0.929514,0.252598 3.328842,0.433371 3.490737,0.263004 0.02723,-0.02866 -0.05264,-0.12743 -0.177486,-0.219493 -0.72862,-0.537276 -2.087322,-1.803501 -2.087322,-1.945254 0,-0.12217 1.031371,-1.165925 1.882839,-1.905449 1.926948,-1.6736082 3.959164,-2.9484941 6.375633,-3.9996765 1.109488,-0.482636 2.991056,-1.142816 3.257118,-1.142816 0.127603,0 0.223978,0.104631 0.37937,0.411871 0.441397,0.8727264 1.443274,2.0985809 1.715146,2.0985809 0.06762,0 0.110413,-0.3234829 0.147981,-1.1185651 0.06139,-1.2991745 0.148634,-1.9353733 0.276232,-2.0142327 0.140027,-0.086542 2.030499,-0.3791937 3.381942,-0.5235366 1.683304,-0.1797878 5.04797,-0.1799332 6.615687,-2.824e-4 1.497247,0.171572 2.809125,0.4087958 2.878128,0.5204452 0.0298,0.048219 0.02362,0.2352104 -0.01373,0.4155359 -0.03735,0.1803222 -0.09033,0.9015387 -0.117735,1.6027001 -0.04502,1.151912 -0.03735,1.2748389 0.07946,1.2748389 0.07111,0 0.129284,-0.027133 0.129284,-0.060296 0,-0.073618 0.964539,-1.3491636 1.608259,-2.126825 0.447167,-0.5402122 0.483699,-0.5662197 0.730439,-0.5199955 0.899992,0.1686044 4.041363,1.5857526 5.624142,2.5371862 1.104312,0.6638192 2.34824,1.5282695 2.333,1.6212853 -0.0071,0.043148 -0.330715,0.2784756 -0.719213,0.5229494 -1.032964,0.6500239 -1.601579,1.1037389 -2.437529,1.9449759 -1.179063,1.186521 -2.090869,2.594413 -2.68228,4.141624 -0.136069,0.355974 -0.289121,0.647226 -0.340118,0.647226 -0.051,0 -0.495871,-0.191632 -0.98861,-0.425847 -3.313768,-1.57515 -7.547213,-2.212036 -11.470389,-1.725625 -6.728467,0.834223 -12.738014,4.921171 -15.978636,10.866686 -0.748825,1.373858 -1.663303,3.613112 -1.528989,3.743993 0.08023,0.07818 0.204216,-0.115386 0.995683,-1.554432 1.182976,-2.15089 1.487654,-2.570818 3.2483,-4.477025 2.522552,-2.731104 4.611424,-4.357312 7.210068,-5.613112 1.874349,-0.905783 3.72901,-1.479689 5.844646,-1.808569 1.138836,-0.177035 4.371641,-0.199618 5.452388,-0.03809 3.070773,0.45896 5.891076,1.497006 8.258286,3.039562 0.703172,0.458212 0.881803,0.698768 0.7438,1.001651 -0.09431,0.206979 -1.994998,2.893471 -2.241975,3.168872 -0.08706,0.09708 -0.241588,0.176516 -0.343385,0.176516 -0.101798,0 -0.54576,-0.218123 -0.986583,-0.484719 -4.533732,-2.741854 -9.959063,-3.012663 -14.687435,-0.733135 -2.102694,1.0137 -4.119596,2.65951 -5.530359,4.512823 -0.510138,0.670166 -1.177255,1.717968 -1.177255,1.849048 0,0.04837 0.925001,1.065136 2.055557,2.25948 1.654456,1.747804 2.135709,2.210751 2.466323,2.372505 0.869717,0.425513 1.390803,0.340507 2.787045,-0.454657 5.397067,-3.073647 10.297587,-4.905883 14.735982,-5.509576 3.822227,-0.519886 6.282939,-0.277584 7.396336,0.728303 1.231564,1.112643 0.754884,2.862675 -1.349287,4.953639 -0.826631,0.821441 -2.078847,1.831605 -2.214456,1.786403 -0.03919,-0.01307 -0.574587,-0.747145 -1.189763,-1.631288 -0.798151,-1.147118 -1.161761,-1.607534 -1.269541,-1.607534 -0.222044,0 -0.510321,0.474415 -0.510321,0.839829 0,0.857334 -0.409998,1.470089 -1.270588,1.89894 -0.602861,0.300418 -0.812805,0.269843 -1.816283,-0.264509 -1.176393,-0.62643 -1.673294,-0.739585 -2.99313,-0.681601 -1.641323,0.07211 -3.187709,0.501677 -5.042436,1.40073 -1.471101,0.713095 -3.312662,1.907778 -3.312662,2.149034 0,0.06624 0.944361,1.820157 2.098581,3.897588 2.291229,4.123885 2.51236,4.440941 3.393033,4.86491 0.964515,0.464331 1.012159,0.468772 5.570065,0.519145 l 4.197162,0.04639 0.388181,0.196129 c 0.213499,0.107871 0.459819,0.294727 0.547378,0.415236 0.20927,0.288022 0.208597,0.765898 -0.0015,1.052368 -0.174929,0.238538 -0.143787,0.221611 -2.424659,1.317849 -2.775254,1.333848 -3.080825,1.56753 -3.427361,2.621031 -0.147609,0.448743 -0.171191,0.707288 -0.179505,1.967969 -0.0053,0.798245 -0.03619,1.508148 -0.06872,1.577562 -0.184999,0.394747 -6.858507,4.765936 -8.327513,5.454573 -0.723109,0.338977 -1.309713,0.237467 -3.189553,-0.551939 -1.361495,-0.571737 -2.795029,-0.788517 -3.988771,-0.603184 -0.323613,0.05024 -1.982865,0.410727 -3.687226,0.801078 -4.643655,1.063539 -5.056245,1.147882 -6.106363,1.248282 -1.442411,0.137906 -2.317939,7.06e-4 -2.186202,-0.342598 0.02684,-0.06994 1.082848,-0.644355 2.346683,-1.276466 3.555389,-1.778238 5.671988,-3.01041 6.530363,-3.801632 0.89829,-0.828014 1.665995,-2.734201 1.856473,-4.609561 0.08572,-0.843986 -0.01841,-2.405637 -0.170702,-2.559991 -0.0404,-0.04095 -0.432069,-0.154882 -0.870367,-0.253178 -0.500654,-0.112283 -1.062099,-0.308744 -1.510266,-0.528477 -0.719983,-0.353001 -1.537102,-0.98482 -1.537102,-1.18853 0,-0.06072 0.08968,-0.419845 0.199289,-0.798045 0.295924,-1.02107 0.585497,-2.689169 0.639518,-3.683965 l 0.04769,-0.878133 -0.202469,-0.05082 c -0.111357,-0.02795 -0.743282,-0.03878 -1.404278,-0.02406 -1.362594,0.03034 -1.495942,0.07745 -1.827988,0.645886 -0.283373,0.48511 -0.477466,1.307776 -0.788647,3.342678 -0.325765,2.130272 -0.575874,3.370464 -0.89756,4.450648 -1.038534,3.487273 -3.08235,6.268109 -6.076188,8.267322 -2.617242,1.747731 -5.87286,2.830099 -9.7729794,3.249141 -1.1687109,0.125569 -1.6694138,0.132454 -2.1910198,0.03013 z M 41.525582,51.08367 c 0.474633,-0.132357 1.015945,-0.277586 1.202917,-0.322731 0.308026,-0.07437 0.357874,-0.121235 0.530831,-0.499023 0.169178,-0.369533 0.188226,-0.670102 0.04263,-0.672726 -0.299564,-0.0054 -2.196818,-0.413823 -2.457035,-0.52893 -0.757612,-0.335128 -0.854402,-0.502745 -2.162965,-3.745775 -0.770579,-1.909737 -0.91256,-2.196792 -1.045822,-2.114432 -0.120776,0.07464 -0.699979,1.134528 -0.699979,1.280893 0,0.196277 2.252795,7.145172 2.357218,7.270994 0.05563,0.06703 0.244728,0.02294 0.722296,-0.16841 0.355816,-0.142566 1.035274,-0.367503 1.509906,-0.49986 z m 11.846196,-6.976142 c -0.129445,-0.08098 -0.376568,-0.29557 -0.549162,-0.476865 -0.443918,-0.466297 -0.683651,-0.57525 -1.130515,-0.51379 -0.51463,0.07078 -0.754323,-0.131211 -0.722393,-0.608761 0.01296,-0.193793 0.667012,-0.589408 1.075789,-0.650708 0.241803,-0.03626 0.493859,-0.0037 0.872393,0.112649 1.04396,0.320916 1.247316,0.580918 1.015346,1.298179 -0.07093,0.219323 -0.13802,0.519612 -0.149084,0.667309 -0.02459,0.32822 -0.10742,0.362767 -0.412374,0.171987 z M 52.89314,41.301393 C 52.681758,41.186889 52.4029,41.03738 52.273455,40.96915 c -0.280482,-0.147838 -0.661793,-0.152824 -2.106571,-0.02754 -1.258308,0.109113 -1.384526,0.07807 -1.384526,-0.340546 0,-0.324172 0.287217,-0.660154 0.565208,-0.661172 0.09905,-3.92e-4 0.41504,0.05955 0.70221,0.133142 l 0.522128,0.133802 0.850775,-0.267838 c 1.411147,-0.44425 2.068898,-0.338388 2.439421,0.392617 0.206465,0.407331 0.225537,0.759263 0.05439,1.003609 -0.167435,0.239048 -0.542491,0.226649 -1.023351,-0.03383 z m 0.299705,-2.527426 c -0.294339,-0.303751 -0.442593,-0.394123 -0.723261,-0.440885 -0.449395,-0.07487 -0.911343,-0.307942 -1.022679,-0.515973 -0.09604,-0.17945 0.01673,-0.881565 0.171548,-1.068113 0.126652,-0.152606 0.385675,-0.125829 0.583864,0.06036 0.17114,0.160778 0.187743,0.161551 0.90725,0.04223 1.044694,-0.173251 2.738685,-0.250699 2.954711,-0.135085 0.32653,0.174753 0.163086,0.858136 -0.278929,1.166247 -0.119309,0.08317 -0.4817,0.250813 -0.805313,0.372551 -0.41094,0.154589 -0.692838,0.323788 -0.934732,0.561039 -0.19049,0.186834 -0.376919,0.339699 -0.414288,0.339699 -0.03737,0 -0.234545,-0.17193 -0.438171,-0.382066 z"
         id="path5051"
         inkscape:connector-curvature="0" />
      <path
         style="fill:#c45330"
         d="m 4.7071639,60.954972 c -0.1867597,-0.05382 -0.2530321,-0.11443 -0.2353549,-0.215251 0.013533,-0.07719 0.4658962,-0.504475 1.0052511,-0.94953 1.1996296,-0.989889 3.2761073,-3.064885 4.1083104,-4.105379 1.9155175,-2.394949 3.2034515,-4.915238 3.7359655,-7.310713 0.08633,-0.388336 0.198405,-1.240868 0.249063,-1.894516 l 0.09211,-1.188451 0.483644,-0.317979 c 0.644654,-0.423834 1.501773,-1.344035 1.743301,-1.8716 0.202589,-0.442514 0.404333,-1.392369 0.314758,-1.481945 -0.02847,-0.02847 -0.22104,0.05687 -0.427938,0.189634 -0.444476,0.285219 -1.774049,0.916017 -2.079642,0.986659 -0.185344,0.04284 -0.22191,0.02045 -0.273213,-0.167331 -0.09913,-0.362842 -0.06586,-6.462675 0.04291,-7.865828 0.111274,-1.435511 0.275617,-3.00495 0.413175,-3.945705 0.07463,-0.510387 0.118966,-0.628018 0.256786,-0.681271 1.493057,-0.576914 2.165098,-0.933293 2.898457,-1.537034 0.247858,-0.20405 0.437802,-0.409836 0.422098,-0.457302 -0.01835,-0.05546 -0.488906,-0.10321 -1.316682,-0.133614 -0.708471,-0.02602 -1.389122,-0.07496 -1.51256,-0.108751 -0.218762,-0.05989 -0.223115,-0.07137 -0.172292,-0.454483 0.02868,-0.216175 0.228399,-1.096018 0.443828,-1.955207 1.050849,-4.191072 2.506568,-7.623252 4.529797,-10.679994 0.464818,-0.702258 0.529163,-0.768029 0.712826,-0.728628 0.111037,0.02382 0.449009,0.09868 0.751048,0.166342 0.684401,0.153328 2.896449,0.255294 2.969628,0.136886 0.02807,-0.04542 -0.187325,-0.269039 -0.478652,-0.496942 -0.847393,-0.662907 -1.824137,-1.58395 -1.824137,-1.720113 0,-0.130714 1.237238,-1.373701 2.118193,-2.128036 1.877512,-1.607655 4.363556,-3.0722018 6.942969,-4.0901538 1.30676,-0.5157063 2.404326,-0.8606904 2.483773,-0.7806937 0.0315,0.031715 0.169461,0.2694828 0.306587,0.5283731 0.137126,0.2588904 0.36608,0.6309517 0.508785,0.8268029 0.328591,0.4509595 1.088998,1.1737135 1.234862,1.1737135 0.08919,0 0.120438,-0.2571365 0.159717,-1.3140647 0.02686,-0.7227355 0.07758,-1.4374811 0.112707,-1.5883236 l 0.06387,-0.2742589 0.702914,-0.1325451 c 3.550995,-0.6695935 7.928709,-0.694639 11.494015,-0.065759 0.738878,0.1303298 0.723618,0.1106404 0.614114,0.7923898 -0.109438,0.6813457 -0.138856,2.6955961 -0.04077,2.79134 0.03708,0.036191 0.125336,-0.022456 0.196129,-0.1303269 0.223444,-0.3404732 1.120188,-1.5074066 1.612679,-2.098581 0.322857,-0.3875501 0.528378,-0.5687742 0.645029,-0.5687742 0.442509,0 3.255539,1.1836397 4.696298,1.9760628 0.980477,0.5392664 2.690892,1.6135681 3.098016,1.9458467 l 0.272554,0.2224472 -0.258822,0.1440801 c -2.576574,1.4343168 -4.601368,3.7294038 -5.624142,6.3749178 -0.143082,0.370098 -0.289437,0.672258 -0.325233,0.671466 -0.0358,-7.92e-4 -0.366002,-0.148023 -0.733793,-0.327182 -1.989546,-0.969155 -4.168336,-1.573776 -6.744969,-1.87175 -1.387814,-0.160494 -4.129701,-0.120735 -5.413162,0.07849 -3.789714,0.588269 -7.3876,2.175047 -10.354286,4.566557 -1.55548,1.253908 -3.235915,3.131183 -4.412864,4.929773 -0.914403,1.397371 -2.099406,3.892706 -2.378737,5.009057 -0.04784,0.191196 -0.03457,0.219488 0.09182,0.19571 0.09304,-0.0175 0.298693,-0.303606 0.555407,-0.772669 0.937411,-1.712815 1.707673,-2.977284 2.150271,-3.529905 1.256734,-1.569137 3.474396,-3.808975 4.934196,-4.983536 6.431118,-5.174499 15.54701,-5.826125 22.655805,-1.619493 1.157274,0.684818 1.428844,0.90636 1.428844,1.16563 0,0.22572 -2.102393,3.253832 -2.3899,3.442214 -0.214379,0.140467 -0.313112,0.107065 -1.007133,-0.340708 -0.72989,-0.470917 -2.281082,-1.20559 -3.249838,-1.539183 -6.677599,-2.299451 -14.242215,0.418651 -17.992237,6.464931 -0.212828,0.34315 -0.38696,0.652099 -0.38696,0.686554 0,0.105838 4.036461,4.32899 4.321658,4.52154 0.544264,0.367458 1.310124,0.482277 1.90573,0.285709 0.155677,-0.05138 0.82166,-0.395786 1.47996,-0.765351 6.793377,-3.813743 12.548205,-5.598105 18.024785,-5.588824 2.196752,0.0037 3.431348,0.423039 4.116715,1.398197 0.220717,0.314042 0.237148,0.385338 0.23446,1.017401 -0.0024,0.564386 -0.03783,0.755223 -0.208822,1.124906 -0.307825,0.665497 -0.768775,1.304929 -1.489751,2.066591 -0.650617,0.687332 -2.211834,1.999165 -2.379212,1.999165 -0.04944,0 -0.59208,-0.722842 -1.205863,-1.606316 -0.613783,-0.883474 -1.148585,-1.626475 -1.18845,-1.651112 -0.107917,-0.0667 -0.349579,0.08593 -0.500319,0.315992 -0.07316,0.11165 -0.162681,0.467563 -0.198944,0.790919 -0.08114,0.723482 -0.284202,1.058733 -0.89689,1.480708 -0.343429,0.236528 -0.535444,0.311712 -0.866132,0.339135 -0.396153,0.03285 -0.471725,0.0084 -1.117739,-0.361439 -1.111245,-0.636204 -1.530445,-0.750683 -2.732603,-0.746241 -1.806648,0.0067 -3.472409,0.441443 -5.491614,1.433327 -1.568082,0.770281 -3.334194,1.914502 -3.334194,2.160144 0,0.158816 4.056155,7.40272 4.408764,7.873628 0.373649,0.499008 1.069411,0.969571 1.783256,1.206065 0.494833,0.163936 0.684593,0.172857 4.712756,0.221562 3.614823,0.04371 4.253283,0.06895 4.601649,0.181907 0.821421,0.266352 1.151795,1.019841 0.674223,1.537711 -0.140072,0.151892 -0.778416,0.495953 -1.819978,0.980951 -2.119564,0.986966 -3.260538,1.641008 -3.544739,2.031958 -0.513836,0.706839 -0.696597,1.664325 -0.634937,3.326454 l 0.03858,1.039996 -0.288469,0.272061 c -0.51943,0.489885 -5.596791,3.807423 -7.577556,4.95116 -0.663601,0.383177 -0.670267,0.385047 -1.372904,0.385047 -0.64617,0 -0.765958,-0.02579 -1.412129,-0.303999 -1.857747,-0.799862 -2.658509,-1.003173 -3.961807,-1.005891 -1.003681,-0.0021 -1.055112,0.0077 -5.844646,1.111051 -4.056738,0.934554 -4.280063,0.973198 -5.655713,0.978657 -0.897805,0.0036 -1.215648,-0.02152 -1.315032,-0.103775 -0.210195,-0.173968 -0.05201,-0.285245 1.397512,-0.983097 2.81149,-1.353553 5.74594,-2.984407 6.887963,-3.828064 0.687676,-0.508013 0.964725,-0.839914 1.406019,-1.684395 0.76142,-1.457094 1.042337,-2.738296 0.985986,-4.496876 -0.04128,-1.288294 -0.109469,-1.54426 -0.428605,-1.60893 -1.51438,-0.306875 -2.519719,-0.725676 -3.226434,-1.34406 -0.481857,-0.42163 -0.477535,-0.375384 -0.149259,-1.597204 0.287089,-1.068519 0.524621,-2.581592 0.548057,-3.491097 l 0.02022,-0.784516 -1.399892,-0.02145 c -1.685729,-0.02583 -1.785439,0.01059 -2.16578,0.791187 -0.298706,0.61305 -0.400777,1.068481 -0.750567,3.348977 -0.430098,2.804078 -0.726416,4.067147 -1.297773,5.531823 -1.999033,5.124525 -6.303152,8.467314 -12.6195221,9.800937 -2.012446,0.424902 -4.4005133,0.624442 -5.091205,0.425404 z M 40.026588,51.628216 c 0.502306,-0.201133 2.013866,-0.653032 2.832672,-0.846861 0.404196,-0.09568 0.788279,-1.097764 0.467881,-1.220711 -0.06628,-0.02543 -0.551698,-0.118524 -1.07871,-0.206866 -1.108496,-0.185815 -1.808667,-0.480386 -2.123758,-0.893491 -0.193084,-0.253146 -0.839884,-1.743581 -1.816276,-4.185286 -0.535806,-1.339912 -0.589975,-1.370344 -1.047361,-0.588387 -0.170361,0.291252 -0.331917,0.605 -0.359014,0.697218 -0.03188,0.108483 0.326969,1.326966 1.016584,3.451871 0.586218,1.806311 1.119719,3.451893 1.185557,3.656848 0.06584,0.204955 0.167157,0.372645 0.225151,0.372645 0.05799,0 0.371768,-0.106641 0.697274,-0.23698 z m 12.888879,-7.987362 c -0.623654,-0.566466 -0.856889,-0.669361 -1.257094,-0.554584 -0.446697,0.128111 -0.813598,-0.301048 -0.572265,-0.669369 0.173472,-0.264752 0.742042,-0.515061 1.169947,-0.515061 0.394692,0 1.142281,0.24469 1.488368,0.487152 0.240907,0.168776 0.287442,0.507199 0.12379,0.900257 -0.05057,0.121467 -0.0947,0.361464 -0.09806,0.533327 -0.0043,0.22051 -0.04301,0.319659 -0.131489,0.336877 -0.06896,0.01342 -0.394394,-0.21995 -0.723193,-0.518599 z m -0.108736,-2.455815 c -0.815924,-0.432876 -0.973785,-0.459902 -1.962024,-0.335911 -0.465492,0.0584 -1.085403,0.107338 -1.37758,0.10874 -0.496719,0.0024 -0.537251,-0.01066 -0.62392,-0.200881 -0.07453,-0.163578 -0.0698,-0.244267 0.02414,-0.411871 0.208683,-0.372296 0.432972,-0.419962 1.104958,-0.234827 l 0.593306,0.163458 0.775468,-0.252808 c 1.333332,-0.434675 2.00078,-0.387919 2.408718,0.168734 0.220428,0.300785 0.272121,0.964733 0.09072,1.165181 -0.199167,0.220076 -0.34361,0.196349 -1.033788,-0.169815 z M 53.230552,38.72597 C 52.95994,38.424814 52.848178,38.36129 52.451732,38.283294 51.8048,38.156018 51.495384,37.933142 51.46505,37.572578 c -0.02806,-0.333495 0.159099,-0.830093 0.338837,-0.899065 0.07785,-0.02987 0.21017,0.03242 0.346696,0.163221 l 0.220795,0.211534 0.617877,-0.130786 c 0.339833,-0.07193 1.170048,-0.149769 1.844922,-0.172972 1.168551,-0.04018 1.231037,-0.03472 1.310832,0.114375 0.111746,0.208798 -0.01229,0.649698 -0.244025,0.867399 -0.176316,0.165642 -0.543496,0.341644 -1.249379,0.598874 -0.215311,0.07846 -0.483419,0.262112 -0.647022,0.443201 -0.153651,0.170072 -0.319575,0.309222 -0.368722,0.309222 -0.04915,0 -0.231535,-0.158225 -0.405309,-0.351611 z"
         id="path5049"
         inkscape:connector-curvature="0" />
      <path
         style="fill:#bd4431"
         d="M 5.0455762,60.975422 C 4.6461253,60.922613 4.457189,60.846895 4.457189,60.739623 c 0,-0.03289 0.4661734,-0.44562 1.0359411,-0.917178 1.3434448,-1.111877 3.1199675,-2.887554 4.0763287,-4.074389 2.5531772,-3.168466 3.8992562,-6.29619 4.0437212,-9.395913 l 0.0467,-1.002085 0.596073,-0.418306 c 1.229721,-0.862979 1.813442,-1.737284 2.009793,-3.010299 0.04394,-0.284854 0.03142,-0.33342 -0.08589,-0.33342 -0.07553,0 -0.299274,0.103593 -0.497219,0.230206 -0.492956,0.315313 -1.639622,0.855772 -1.940608,0.914668 l -0.24703,0.04834 -0.05708,-0.761366 c -0.08867,-1.182743 0.01388,-6.88989 0.149297,-8.308206 0.176261,-1.846137 0.373045,-3.37219 0.444922,-3.450359 0.03485,-0.0379 0.392447,-0.198595 0.79466,-0.357098 0.946455,-0.372976 1.803517,-0.877294 2.319942,-1.365114 0.226529,-0.213981 0.411871,-0.414016 0.411871,-0.444522 0,-0.03051 -0.573678,-0.07764 -1.274839,-0.104739 -0.701162,-0.0271 -1.3984,-0.07877 -1.54942,-0.114825 -0.254153,-0.06067 -0.272964,-0.0856 -0.252855,-0.334979 0.039,-0.483589 0.780973,-3.37797 1.195293,-4.662717 0.603815,-1.872348 1.274367,-3.521108 2.073908,-5.099355 0.62846,-1.240545 1.623487,-2.913271 2.075363,-3.488867 l 0.152221,-0.193897 0.65339,0.134688 c 1.438926,0.296618 3.28152,0.354662 3.28152,0.103373 0,-0.05202 -0.220645,-0.257401 -0.490322,-0.456397 -0.269678,-0.198997 -0.808052,-0.659912 -1.196388,-1.024257 l -0.706064,-0.662444 0.322353,-0.350019 c 2.511216,-2.7267438 6.115324,-4.9947345 10.029995,-6.3116706 0.559132,-0.188098 1.056425,-0.3419963 1.105094,-0.3419963 0.04867,0 0.279611,0.3264229 0.513202,0.7253842 0.608514,1.0393057 1.797616,2.2048062 1.797616,1.7619359 0,-1.0383962 0.141197,-2.8841315 0.231855,-3.0308193 0.07502,-0.1213812 0.403455,-0.1939088 1.768662,-0.3905676 3.286957,-0.473488 7.266402,-0.4471081 10.11767,0.06707 0.464033,0.083681 0.862203,0.1706535 0.884823,0.193273 0.02262,0.022619 0.0011,0.3535418 -0.04791,0.7353831 -0.04897,0.3818412 -0.08903,1.1419822 -0.08903,1.6892019 0,1.1523059 0.06868,1.2401611 0.491939,0.629307 0.352583,-0.5088508 1.733059,-2.2409267 1.889535,-2.3707906 0.110771,-0.091932 0.246035,-0.066463 0.963759,0.1814653 1.702951,0.5882612 3.745717,1.5817805 5.402123,2.6273745 1.814734,1.145538 1.957002,1.2682572 1.601193,1.3811865 -0.09018,0.028623 -0.5403,0.3028782 -1.000258,0.6094562 -1.103641,0.7356138 -2.69053,2.3068638 -3.379231,3.3459278 -0.563225,0.849756 -1.005405,1.701709 -1.264421,2.436181 -0.09891,0.280464 -0.206597,0.540646 -0.239307,0.578181 -0.03271,0.03754 -0.435136,-0.114766 -0.894278,-0.338447 -1.618764,-0.788615 -4.029746,-1.475787 -6.23841,-1.778057 -1.201533,-0.164439 -3.997784,-0.1875 -5.138581,-0.04238 -2.657654,0.33808 -5.031831,1.069273 -7.367394,2.268991 -4.623862,2.375156 -8.389148,6.619439 -10.196081,11.493165 -0.318562,0.85924 -0.360923,1.181587 -0.149934,1.140954 0.08191,-0.01577 0.465647,-0.6227 0.983277,-1.555171 0.466919,-0.841116 1.005878,-1.766056 1.197689,-2.055424 0.710089,-1.071245 2.814398,-3.367895 4.410508,-4.813645 3.070366,-2.781122 6.64978,-4.48328 10.729677,-5.1024 1.181246,-0.179253 4.255964,-0.203904 5.33471,-0.04277 3.153644,0.471065 5.817253,1.442996 8.257667,3.013161 0.718508,0.462289 0.903832,0.691635 0.756517,0.93622 -0.214655,0.356392 -2.192861,3.101653 -2.292734,3.18175 -0.206113,0.165301 -0.382854,0.113728 -1.054178,-0.307609 -1.910729,-1.199215 -4.108818,-1.973442 -6.410504,-2.257958 -0.932862,-0.115313 -2.790127,-0.0996 -3.778434,0.03197 -4.104814,0.546464 -7.887377,2.776903 -10.3715,6.115697 -0.577639,0.776379 -1.0721,1.585539 -1.069806,1.750683 0.0011,0.07657 0.945426,1.12537 2.098581,2.330673 2.254953,2.356924 2.469135,2.527724 3.273929,2.610785 0.555259,0.05731 0.983275,-0.08758 2.051605,-0.694497 6.417599,-3.645821 11.565592,-5.378054 17.011633,-5.724194 3.749132,-0.238288 5.653963,0.559589 5.636737,2.361058 -0.0092,0.958021 -0.528057,1.896985 -1.751973,3.170277 -0.794899,0.826967 -2.243039,2.038152 -2.354518,1.969255 -0.03681,-0.02275 -0.568555,-0.764658 -1.181656,-1.648688 -0.761037,-1.097334 -1.1602,-1.607326 -1.258034,-1.607326 -0.07882,0 -0.232976,0.09671 -0.342575,0.214905 -0.195786,0.211146 -0.22027,0.293372 -0.321156,1.078514 -0.02765,0.215173 -0.09888,0.485229 -0.158296,0.600125 -0.142655,0.275863 -0.682109,0.731909 -1.111861,0.939948 -0.466344,0.225754 -0.831156,0.166018 -1.517052,-0.248407 -0.895531,-0.541088 -1.470001,-0.718238 -2.469898,-0.761644 -2.247452,-0.09756 -4.675585,0.653652 -7.369462,2.279966 -1.048076,0.63273 -1.856962,1.227922 -1.827983,1.345058 0.01298,0.05246 0.959131,1.783726 2.102563,3.847266 2.277482,4.110146 2.540549,4.490403 3.437107,4.968265 0.920633,0.490692 1.050893,0.503696 5.624056,0.561471 4.478145,0.05657 4.543011,0.06282 4.990307,0.48066 0.214262,0.20015 0.272147,0.405351 0.228479,0.809941 -0.03731,0.345708 -0.27448,0.507524 -1.743858,1.18982 -1.899152,0.881858 -3.235789,1.612015 -3.605866,1.969757 -0.632464,0.611382 -0.870515,1.583039 -0.833796,3.403322 0.02297,1.138799 0.02044,1.158851 -0.172814,1.36835 -0.395217,0.428434 -6.666802,4.504266 -7.956847,5.171066 -0.40351,0.208566 -0.543,0.239436 -1.059097,0.234389 -0.544454,-0.0053 -0.689932,-0.046 -1.731929,-0.484201 -1.692039,-0.711573 -2.231375,-0.83663 -3.608775,-0.836772 -1.119276,-7.9e-5 -1.171575,0.0078 -3.255742,0.492952 -5.276389,1.228231 -6.53792,1.490473 -7.566919,1.572986 -0.560181,0.04492 -1.116725,0.06615 -1.236764,0.04719 -0.12004,-0.01897 -0.350641,-0.05521 -0.512448,-0.08055 -0.164344,-0.02573 -0.294194,-0.09079 -0.294194,-0.147401 0,-0.05573 0.997317,-0.600297 2.216259,-1.210136 3.68127,-1.841749 6.008021,-3.207205 6.74782,-3.959967 1.232852,-1.254452 2.036143,-4.036329 1.797262,-6.224091 -0.04925,-0.451087 -0.123415,-0.883432 -0.164804,-0.960767 -0.05233,-0.09777 -0.249854,-0.171428 -0.64841,-0.241776 -1.130193,-0.199489 -2.307396,-0.738443 -2.994832,-1.371111 -0.238054,-0.219089 -0.292737,-0.31747 -0.253646,-0.456344 0.496825,-1.764986 0.740493,-3.070142 0.807038,-4.322717 0.04001,-0.753053 0.02844,-0.942407 -0.06105,-0.999057 -0.156764,-0.09924 -2.525792,-0.08959 -2.792273,0.01138 -0.47823,0.181196 -0.852256,0.741893 -1.073079,1.608634 -0.06517,0.255809 -0.246765,1.294734 -0.403536,2.308721 -0.536307,3.468797 -1.017653,5.261686 -1.873567,6.978551 -1.538279,3.08561 -3.839893,5.316633 -7.123094,6.904625 -1.126027,0.544628 -2.192451,0.947042 -3.437381,1.297093 -1.9663883,0.552912 -5.1459564,0.977931 -6.2369048,0.8337 z m 35.1813858,-9.38465 c 0.407617,-0.158923 1.21495,-0.408289 1.794073,-0.554147 1.14546,-0.288495 1.187229,-0.316211 1.393778,-0.924864 0.1123,-0.330924 0.114431,-0.395236 0.01634,-0.493323 -0.06204,-0.06204 -0.599525,-0.201093 -1.194421,-0.309018 -1.55404,-0.28193 -2.007804,-0.551799 -2.402987,-1.429136 -0.09145,-0.203034 -0.552621,-1.32234 -1.024817,-2.487347 -0.472196,-1.165006 -0.903956,-2.16362 -0.959467,-2.219141 -0.05551,-0.05552 -0.153915,-0.08061 -0.218676,-0.05576 -0.159458,0.06119 -0.773078,1.152637 -0.773078,1.375074 0,0.217338 2.258156,7.213309 2.374381,7.356048 0.04552,0.0559 0.12123,0.08564 0.168252,0.0661 0.04702,-0.01954 0.419001,-0.16556 0.826618,-0.324483 z m 12.793463,-7.92207 c -0.544988,-0.551843 -0.855494,-0.701873 -1.320657,-0.638116 -0.27051,0.03708 -0.388862,0.01772 -0.498518,-0.08151 -0.349489,-0.316282 0.0071,-0.788278 0.733369,-0.970831 0.322593,-0.08108 0.440822,-0.07045 0.972717,0.08745 0.982532,0.291681 1.203142,0.579761 0.935152,1.221153 -0.06472,0.154903 -0.117678,0.400891 -0.117678,0.546641 0,0.390709 -0.202601,0.343312 -0.704385,-0.164783 z m -0.393938,-2.604216 -0.666838,-0.358016 -0.588388,0.05209 c -1.786184,0.158143 -2.319253,0.181482 -2.412387,0.10562 -0.158616,-0.129201 -0.11408,-0.488981 0.08351,-0.674605 0.213435,-0.200511 0.458324,-0.214643 0.91675,-0.0529 0.449448,0.158575 0.751253,0.148215 1.301783,-0.04469 1.272101,-0.445731 1.956221,-0.432187 2.377004,0.04706 0.26725,0.304382 0.390238,0.861543 0.248596,1.126202 -0.139681,0.260997 -0.509786,0.202026 -1.260028,-0.200768 z m 0.641418,-2.357324 c -0.326058,-0.336514 -0.438827,-0.400129 -0.854152,-0.481839 -0.665189,-0.130868 -0.885588,-0.319515 -0.885588,-0.758003 0,-0.409038 0.135685,-0.743287 0.301729,-0.743287 0.0658,0 0.201334,0.07674 0.301179,0.170545 l 0.181538,0.170546 0.84339,-0.12927 c 0.913244,-0.139976 2.743928,-0.207811 2.902745,-0.10756 0.179785,0.113487 0.109723,0.504614 -0.141682,0.790948 -0.173511,0.197618 -0.428181,0.344112 -0.921807,0.530251 -0.520894,0.196422 -0.761175,0.3385 -1.016879,0.601282 l -0.334819,0.344088 z"
         id="path5047"
         inkscape:connector-curvature="0" />
      <path
         style="fill:#ac2133"
         d="m 4.8166934,60.897464 c -0.1258855,-0.02726 -0.2416259,-0.08787 -0.2572009,-0.134708 -0.015575,-0.04683 0.3216753,-0.371597 0.7494451,-0.721697 4.9779574,-4.074121 7.8588254,-8.613387 8.3256014,-13.118315 0.04247,-0.40991 0.07784,-0.924401 0.07858,-1.143314 l 0.0014,-0.398024 0.551025,-0.376498 c 0.671719,-0.458966 1.383758,-1.220394 1.669666,-1.78548 0.205486,-0.406137 0.474428,-1.523004 0.396933,-1.648393 -0.07476,-0.120962 -0.257588,-0.05629 -0.818522,0.289553 -0.621865,0.383408 -1.619978,0.825768 -1.863205,0.825768 -0.147005,0 -0.155809,-0.08667 -0.209178,-2.059355 -0.08069,-2.982456 0.106772,-6.693244 0.474376,-9.390283 0.06731,-0.493842 0.136774,-0.92118 0.154364,-0.949642 0.01759,-0.02846 0.253711,-0.132065 0.524714,-0.230232 0.656325,-0.237743 1.492868,-0.661311 2.022539,-1.024076 0.541008,-0.370528 1.054665,-0.897099 0.985022,-1.009784 -0.03358,-0.05433 -0.416055,-0.08611 -1.048491,-0.08711 -0.933951,-0.0015 -1.94115,-0.09405 -2.03405,-0.186952 -0.05391,-0.05391 0.308031,-1.69834 0.657842,-2.988761 1.020707,-3.76529 2.391266,-6.941795 4.157082,-9.634743 0.532193,-0.811619 0.686832,-0.996244 0.803435,-0.959236 0.583623,0.185235 1.411867,0.293676 2.539548,0.332499 1.280434,0.04408 1.314065,0.04119 1.314065,-0.113006 0,-0.104694 -0.19248,-0.303427 -0.568774,-0.587253 -0.612936,-0.462314 -1.784775,-1.529538 -1.784775,-1.62544 0,-0.113684 1.774386,-1.811914 2.510452,-2.4027051 1.255618,-1.0077999 2.932304,-2.0857725 4.356759,-2.8010407 1.234615,-0.6199437 4.054113,-1.7043035 4.431443,-1.7043035 0.101605,0 0.233771,0.1656441 0.429775,0.5386388 0.337551,0.6423617 0.881729,1.3314508 1.388994,1.758874 0.54392,0.4583085 0.611315,0.3935782 0.612971,-0.5887278 0.0015,-0.8995281 0.126589,-2.2617048 0.215479,-2.3467919 0.03176,-0.0304 0.499033,-0.129053 1.038388,-0.2192297 3.297028,-0.5512418 6.878095,-0.6074837 10.002582,-0.1570939 1.448552,0.2088064 1.706291,0.2788953 1.65352,0.4496534 -0.197105,0.6377921 -0.266958,3.0349818 -0.09528,3.2697654 0.127332,0.174138 0.06416,0.2372073 0.941473,-0.9399268 0.877434,-1.177297 1.451254,-1.8436131 1.587686,-1.8436131 0.235005,0 2.277031,0.8061581 3.384157,1.3360099 0.614335,0.2940108 1.549871,0.7896884 2.078968,1.1015058 0.974057,0.5740501 2.3049,1.4515117 2.376009,1.5665686 0.02134,0.034522 -0.235134,0.2287798 -0.569934,0.4316838 -1.413589,0.8567008 -2.934779,2.2896098 -3.846363,3.6231438 -0.5161,0.754991 -1.152472,1.971895 -1.395919,2.669348 -0.07907,0.226529 -0.172974,0.411871 -0.208676,0.411871 -0.0357,0 -0.318873,-0.127893 -0.62927,-0.284207 -1.856759,-0.935049 -4.483295,-1.65151 -7.033192,-1.918499 -1.316294,-0.137824 -4.261879,-0.05369 -5.499954,0.157087 -4.387542,0.746974 -8.264309,2.694478 -11.398179,5.725908 -2.407418,2.328724 -4.181325,5.039303 -5.282453,8.071733 -0.292829,0.80643 -0.32002,0.997662 -0.151076,1.062491 0.195938,0.07519 0.393689,-0.187548 1.021242,-1.356844 1.177292,-2.193609 1.636314,-2.849982 3.157268,-4.514701 1.837218,-2.010876 3.402914,-3.40532 5.068944,-4.514515 3.273943,-2.179697 6.988301,-3.291421 10.996899,-3.291421 2.64928,0 4.974025,0.443351 7.429509,1.416878 1.656361,0.656699 3.946266,1.970218 4.032293,2.312976 0.05672,0.225993 0.144424,0.08081 -1.170876,1.938275 -0.914434,1.291365 -1.129088,1.54942 -1.288824,1.54942 -0.10541,0 -0.514754,-0.200352 -0.909653,-0.445227 -6.058471,-3.756838 -13.929545,-2.824612 -19.021058,2.252796 -1.161799,1.15858 -2.666996,3.223567 -2.591216,3.554902 0.04462,0.195081 4.073636,4.373572 4.442965,4.607794 0.482721,0.306132 1.082811,0.42182 1.606567,0.30972 0.259304,-0.0555 0.99989,-0.414459 2.017905,-0.978071 4.882851,-2.703328 8.843144,-4.240821 12.826841,-4.979725 2.310895,-0.428629 5.245974,-0.595447 6.525904,-0.370905 1.2683,0.222501 2.05304,0.637487 2.435354,1.287865 0.185566,0.315678 0.217582,0.45672 0.217582,0.958529 0,0.514654 -0.03545,0.662121 -0.282892,1.176775 -0.155591,0.323613 -0.443283,0.800206 -0.639314,1.059097 -0.580397,0.766505 -2.36377,2.429755 -3.015116,2.812027 -0.06041,0.03545 -0.497021,-0.525398 -1.241206,-1.594408 -0.748286,-1.074903 -1.195547,-1.649103 -1.284531,-1.649103 -0.343856,0 -0.714026,0.616374 -0.716987,1.193867 -0.0033,0.650463 -0.438579,1.254671 -1.174108,1.629909 -0.495868,0.252974 -0.776435,0.20703 -1.678976,-0.274935 -1.210202,-0.646259 -1.453653,-0.706898 -2.79371,-0.695852 -1.658751,0.01367 -2.983841,0.331567 -4.877864,1.170217 -1.57428,0.697072 -3.908719,2.17922 -3.908719,2.481667 0,0.155275 3.795249,7.061958 4.238997,7.714225 0.320591,0.47124 0.925067,1.002588 1.410889,1.240206 0.886934,0.433802 1.175032,0.460038 5.647149,0.514252 4.001852,0.04851 4.129125,0.05474 4.485785,0.21957 0.55531,0.256633 0.745575,0.72043 0.494625,1.205714 -0.08575,0.165828 -0.277312,0.301385 -0.686452,0.485772 -0.312128,0.140666 -1.376894,0.65853 -2.366146,1.150809 -1.4696,0.731312 -1.873211,0.968237 -2.206267,1.295107 -0.68891,0.676113 -0.930829,1.666722 -0.847365,3.469805 0.04366,0.943175 0.03599,1.023194 -0.116397,1.213931 -0.392049,0.490722 -6.859344,4.7045 -8.132753,5.298912 -0.739162,0.345032 -1.367967,0.244676 -2.995818,-0.478127 -1.076543,-0.478009 -2.026332,-0.686672 -3.162634,-0.694811 -0.539355,-0.0039 -1.192465,0.0383 -1.451355,0.09369 -0.258891,0.0554 -1.988749,0.447906 -3.84413,0.872244 -4.315776,0.98705 -4.891772,1.095544 -6.080001,1.145218 -0.947264,0.0396 -1.414799,-0.01447 -1.465296,-0.169475 -0.01329,-0.0408 1.114112,-0.646597 2.50534,-1.346225 3.697231,-1.859282 5.577081,-2.968562 6.390503,-3.770967 0.714929,-0.705247 1.464335,-2.352746 1.709373,-3.757896 0.195659,-1.12199 0.129234,-3.339381 -0.107116,-3.575731 -0.03589,-0.03589 -0.379571,-0.130207 -0.763738,-0.209597 -1.123303,-0.232135 -2.073595,-0.679123 -2.889934,-1.359337 l -0.230159,-0.19178 0.288065,-1.168741 c 0.373991,-1.517361 0.532015,-2.540346 0.549981,-3.560342 l 0.01453,-0.824916 -1.5081,-0.0213 -1.508101,-0.0213 -0.306521,0.276923 c -0.553133,0.499722 -0.715908,1.049595 -1.149864,3.884386 -0.349763,2.284797 -0.642122,3.638364 -1.048168,4.85281 -0.737187,2.204863 -1.797056,3.973138 -3.338102,5.569253 -1.924412,1.993178 -4.202658,3.354935 -7.234442,4.324178 -2.2874151,0.731273 -6.0803803,1.27536 -7.2003626,1.032867 z M 39.588785,51.91204 c 0.368311,-0.190461 1.827668,-0.677095 2.603636,-0.868204 0.995564,-0.245191 0.984952,-0.239435 1.171048,-0.635336 0.184441,-0.392383 0.210382,-0.759558 0.06234,-0.882421 -0.05516,-0.04578 -0.533428,-0.157132 -1.062822,-0.247455 -1.564692,-0.266963 -2.045415,-0.523861 -2.426615,-1.296783 -0.08512,-0.172594 -0.551014,-1.302297 -1.035316,-2.510452 -0.484302,-1.208155 -0.941541,-2.259802 -1.016086,-2.336992 -0.07455,-0.07719 -0.188701,-0.119944 -0.253678,-0.09501 -0.137303,0.05269 -0.746267,1.040624 -0.818266,1.32749 -0.05515,0.219745 2.268144,7.494831 2.425519,7.595183 0.1179,0.07518 0.104404,0.07711 0.350238,-0.05002 z m 13.466768,-8.286514 c -0.616105,-0.57316 -0.934539,-0.7252 -1.37227,-0.655204 -0.243628,0.03896 -0.351512,0.01842 -0.470927,-0.08965 -0.200181,-0.181161 -0.19534,-0.285879 0.02269,-0.490704 0.241792,-0.227153 0.701728,-0.409678 1.032324,-0.409678 0.331674,0 1.2512,0.323288 1.461913,0.51398 0.185001,0.167425 0.196167,0.507565 0.02738,0.833972 -0.06878,0.13301 -0.109972,0.344631 -0.09153,0.470268 0.01844,0.125637 0.0049,0.246111 -0.03004,0.267719 -0.03496,0.02161 -0.29575,-0.176708 -0.579526,-0.440704 z m -0.04556,-2.431597 c -1.014227,-0.569107 -1.017074,-0.569508 -2.789563,-0.392966 -0.917946,0.09143 -1.133214,0.09279 -1.235613,0.0078 -0.166472,-0.13816 -0.156233,-0.256923 0.04411,-0.511614 0.144919,-0.184235 0.21256,-0.209136 0.490323,-0.180505 0.177217,0.01827 0.487476,0.08105 0.689467,0.139515 0.348414,0.100849 0.409831,0.09297 1.19726,-0.153617 1.120941,-0.351026 1.436888,-0.380065 1.867436,-0.171641 0.527594,0.255405 0.808657,1.053313 0.485027,1.376943 -0.171421,0.171421 -0.265425,0.157112 -0.748444,-0.11392 z m 0.318044,-2.502491 c -0.252516,-0.314222 -0.451496,-0.425042 -0.936585,-0.521617 -0.408563,-0.08134 -0.777227,-0.278372 -0.829598,-0.443377 -0.0673,-0.212043 0.03982,-0.750905 0.176433,-0.887515 0.104165,-0.104165 0.143702,-0.09518 0.351894,0.08001 0.276795,0.232908 0.255846,0.231371 1.007021,0.07381 0.357529,-0.07499 1.050103,-0.128834 1.765162,-0.137226 l 1.176774,-0.01381 0.0251,0.261895 c 0.02094,0.218461 -0.02549,0.310023 -0.27996,0.552092 -0.167783,0.159608 -0.461504,0.336983 -0.652713,0.394167 -0.554616,0.165864 -1.074488,0.459947 -1.262407,0.714121 -0.09562,0.12933 -0.200851,0.235145 -0.233851,0.235145 -0.033,0 -0.171272,-0.138462 -0.30727,-0.307692 z"
         id="path5045"
         inkscape:connector-curvature="0" />
    </g>
    <g
       transform="matrix(0.59769807,0,0,0.59769807,-22.203597,37.522129)"
       id="g4875">
      <path
         style="fill:url(#gradientFill-1-3);fill-rule:evenodd"
         inkscape:connector-curvature="0"
         d="m 104.62129,-15.536052 c -5.119374,2.131451 -10.194235,1.6809 -11.855615,-0.614998 -1.563075,-2.160049 0.186789,-5.582783 4.267476,-8.021353 4.665789,-2.78822 11.004239,-3.523609 13.693859,-1.096284 2.91079,2.626929 -0.14676,7.251623 -6.10572,9.732635 0,0 0,0 0,0 m -4.963312,-7.833939 c -3.410661,1.918738 -4.998136,4.539634 -3.798824,6.080899 1.253062,1.610339 5.248376,1.681506 9.251816,-0.07415 4.4954,-1.9714 7.06168,-4.632508 4.6402,-6.883826 -2.26371,-2.104632 -6.30045,-1.256602 -10.093192,0.877081 0,0 0,0 0,0"
         id="path4809" />
      <path
         style="fill:#801927;fill-opacity:1;fill-rule:evenodd;stroke:#ffc72c;stroke-width:0.5;stroke-miterlimit:4;stroke-dasharray:none;stroke-opacity:1"
         inkscape:connector-curvature="0"
         d="m 108.03975,-20.105157 c 0,0 0.7967,-0.173088 1.31992,-0.223303 0.18326,-0.01759 0.51461,-0.03626 0.80993,0.0036 0.29155,0.0393 0.49765,0.120112 0.49765,0.120112 0,0 6.33242,1.886333 6.33242,1.886333 0,0 -4.96763,1.931666 -4.96763,1.931666 0,0 -4.56827,-1.737759 -4.56827,-1.737759 0,0 -0.82808,-0.287801 -1.1898,-0.314143 -0.29894,-0.02176 -0.41849,-0.02331 -0.61071,0.063 -0.13322,0.05981 -0.9256,0.415582 -0.9256,0.415582 0,0 2.96235,3.253522 2.96235,3.253522 0,0 -3.53082,1.373081 -3.53082,1.373081 0,0 -6.43324,-7.594055 -6.43324,-7.594055 0,0 6.05237,-3.279658 6.05237,-3.279658 0,0 3.18015,-1.666447 5.26075,0.29777 2.21391,2.090061 -1.00931,3.804279 -1.00931,3.804279 0,0 -1e-5,2e-6 -1e-5,2e-6 m -4.03315,-1.845222 c 0,0 -1.95616,0.994241 -1.95616,0.994241 0,0 1.15014,1.26436 1.15014,1.26436 0,0 2.02584,-0.979105 2.02584,-0.979105 0,0 0.97592,-0.474331 0.33318,-1.133993 -0.64292,-0.659855 -1.55301,-0.14553 -1.55301,-0.14553 0,0 1e-5,2.7e-5 1e-5,2.7e-5"
         id="path4811" />
    </g>
  </g>
</svg>
