<svg id="Layer_1" data-name="Layer 1" xmlns="http://www.w3.org/2000/svg" xmlns:xlink="http://www.w3.org/1999/xlink" viewBox="0 0 840.79 501"><defs><style>.cls-1{fill:#e6e6e6;}.cls-1,.cls-4{fill-rule:evenodd;}.cls-2{fill:url(#linear-gradient);}.cls-3{fill:none;stroke:#b3b3b3;stroke-miterlimit:10;}.cls-4{fill:url(#linear-gradient-2);}.cls-5{fill:#276dc3;}</style><linearGradient id="linear-gradient" x1="122.07" y1="37.04" x2="807.21" y2="495.7" gradientUnits="userSpaceOnUse"><stop offset="0" stop-color="#cbced0"/><stop offset="1" stop-color="#84838b"/></linearGradient><linearGradient id="linear-gradient-2" x1="700.35" y1="515.63" x2="701.15" y2="514.84" gradientTransform="matrix(398, 0, 0, -406.12, -278640.31, 209530.59)" gradientUnits="userSpaceOnUse"><stop offset="1" stop-color="#276dc3"/><stop offset="1" stop-color="#165caa"/></linearGradient></defs><title>ocrug blue</title><path class="cls-1" d="M799,368c-26.22,24.38-64.1,35.79-108,35.79-84.19,0-152.43-61.38-152.43-137.09S606.82,129.57,691,129.57c43,0,80.24,11,106.39,34.37l56.38-56.39a250,250,0,0,0-388.69,3.75A249.56,249.56,0,0,0,269.23,16.67c-138.07,0-250,111.93-250,250s111.93,250,250,250A249.54,249.54,0,0,0,465.09,422a250,250,0,0,0,390,2.08Z" transform="translate(-18.73 -16.17)"/><path class="cls-2" d="M799,368c-26.22,24.38-64.1,35.79-108,35.79-84.19,0-152.43-61.38-152.43-137.09S606.82,129.57,691,129.57c43,0,80.24,11,106.39,34.37l56.38-56.39a250,250,0,0,0-388.69,3.75A249.56,249.56,0,0,0,269.23,16.67c-138.07,0-250,111.93-250,250s111.93,250,250,250A249.54,249.54,0,0,0,465.09,422a250,250,0,0,0,390,2.08Z" transform="translate(-18.73 -16.17)"/><path class="cls-3" d="M799,368c-26.22,24.38-64.1,35.79-108,35.79-84.19,0-152.43-61.38-152.43-137.09S606.82,129.57,691,129.57c43,0,80.24,11,106.39,34.37l56.38-56.39a250,250,0,0,0-388.69,3.75A249.56,249.56,0,0,0,269.23,16.67c-138.07,0-250,111.93-250,250s111.93,250,250,250A249.54,249.54,0,0,0,465.09,422a250,250,0,0,0,390,2.08Z" transform="translate(-18.73 -16.17)"/><path class="cls-4" d="M321.08,278.25s17.35,5.23,27.44,10.33c3.49,1.77,9.55,5.31,13.91,9.94a37.55,37.55,0,0,1,6.36,9.15L437.18,423l-110.53,0L275,326s-10.58-18.19-17.1-23.46c-5.43-4.4-7.75-6-13.12-6H218.48l0,126.41-97.81,0V100.07H317.1s89.46,1.62,89.46,86.73S321.08,278.25,321.08,278.25ZM278.54,170.12l-59.21,0,0,54.91,59.24,0S306,224.88,306,197C306,168.63,278.54,170.12,278.54,170.12Z" transform="translate(-18.73 -16.17)"/><path class="cls-5" d="M573.34,275.94V185.86h38.09V279.8c0,32.94,10.3,44.26,29.08,44.26s29.6-11.32,29.6-44.26V185.86h36.54v90.08c0,56.36-22.9,80.81-66.14,80.81C597,356.75,573.34,332.3,573.34,275.94Z" transform="translate(-18.73 -16.17)"/><path class="cls-5" d="M722.09,270.79c0-55.59,37.06-88,81.84-88a72.46,72.46,0,0,1,52.76,21.87l-19.82,24.19c-8.49-7.46-17.24-13.38-31.65-13.38-26,0-44.27,20.33-44.27,54,0,34.49,15.7,54.56,47.1,54.56,7,0,13.9-1.8,18-5.14V290.09H798.27V259.21h61.25v77.21c-11.58,11.32-31.91,20.33-55.33,20.33C758.12,356.75,722.09,327.15,722.09,270.79Z" transform="translate(-18.73 -16.17)"/></svg>